<svg width="75" height="39" viewBox="0 0 75 39" fill="none" xmlns="http://www.w3.org/2000/svg">
<g clip-path="url(#clip0_39_74)">
<mask id="mask0_39_74" style="mask-type:luminance" maskUnits="userSpaceOnUse" x="-4" y="1" width="181" height="38">
<path d="M-3.11316 1.22952H176.887V38.2295H-3.11316V1.22952Z" fill="white"/>
</mask>
<g mask="url(#mask0_39_74)">
<path d="M5.00784 19.9195L0.966841 23.9745L-3.11316 19.9205L0.965841 15.8305L5.00784 19.9195ZM14.8868 10.0145L21.8468 16.9945L25.9268 12.9055L14.8868 1.87051L3.84684 12.9395L7.92684 17.0285L14.8868 10.0145ZM28.8088 15.8315L24.7658 19.9215L28.8438 24.0115L32.9218 19.9215L28.8088 15.8315ZM14.8868 29.8265L7.92684 22.8115L3.84684 26.9015L14.8868 37.9695L25.9268 26.8995L21.8468 22.8095L14.8868 29.8265ZM14.8868 23.9755L18.9648 19.8845L14.8868 15.8315L10.8078 19.9205L14.8868 23.9735V23.9755ZM57.7778 24.3965V24.3265C57.7778 21.6835 56.3708 20.3425 54.0868 19.4615C55.4918 18.6865 56.6868 17.4155 56.6868 15.1955V15.1255C56.6868 12.0235 54.1918 10.0135 50.1838 10.0135H41.0068V29.7925H50.3938C54.8578 29.8265 57.7768 27.9925 57.7768 24.3985L57.7778 24.3965ZM52.3628 15.9365C52.3628 17.4165 51.1678 18.0165 49.2338 18.0165H45.2268V13.8195H49.5158C51.3448 13.8195 52.3628 14.5595 52.3628 15.8655V15.9365ZM53.4528 23.8345C53.4528 25.3145 52.2938 25.9845 50.3928 25.9845H45.2268V21.6465H50.2538C52.4698 21.6465 53.4538 22.4595 53.4538 23.7975L53.4528 23.8345ZM66.8828 29.8265V10.0135H62.5238V29.7925H66.8828V29.8265ZM90.2278 29.8265V10.0135H85.9378V22.2135L76.6918 10.0135H72.6828V29.7925H76.9728V17.2415L86.5358 29.8265H90.2278ZM114.272 29.8265L105.802 9.90951H101.795L93.3218 29.8275H97.7868L99.5798 25.3855H107.912L109.705 29.8275H114.276L114.272 29.8265ZM106.363 21.5415H101.125L103.762 15.1265L106.363 21.5415ZM134.981 29.8265V10.0135H130.691V22.2135L121.445 10.0135H117.437V29.7925H121.727V17.2415L131.29 29.8265H134.981ZM157.375 26.6185L154.599 23.8345C153.051 25.2435 151.68 26.1595 149.395 26.1595C146.02 26.1595 143.665 23.3395 143.665 19.9545V19.8495C143.665 16.4655 146.055 13.6805 149.395 13.6805C151.363 13.6805 152.911 14.5265 154.458 15.9005L157.234 12.6925C155.407 10.8955 153.192 9.62551 149.466 9.62551C143.419 9.62551 139.165 14.2435 139.165 19.8495V19.9195C139.165 25.5955 143.488 30.1085 149.29 30.1085C153.086 30.1445 155.337 28.8035 157.375 26.6185ZM175.903 29.8265V25.9495H165.18V21.7895H174.496V17.9095H165.18V13.8895H175.762V10.0145H160.891V29.7935H175.903V29.8265Z" fill="#433955"/>
</g>
</g>
<defs>
<clipPath id="clip0_39_74">
<rect width="176" height="38" fill="white" transform="translate(0.886841 0.809509)"/>
</clipPath>
</defs>
</svg>
