<svg width="141" height="44" viewBox="0 0 141 44" fill="none" xmlns="http://www.w3.org/2000/svg">
<mask id="mask0_39_43" style="mask-type:luminance" maskUnits="userSpaceOnUse" x="0" y="0" width="141" height="44">
<path d="M0.886841 0.0395203H140.887V43.4195H0.886841V0.0395203Z" fill="white"/>
</mask>
<g mask="url(#mask0_39_43)">
<path d="M55.7618 21.8295C56.8148 21.2335 57.6578 20.4905 58.2718 19.6145C58.9699 18.6254 59.3397 17.4421 59.3288 16.2315C59.3288 13.8965 58.4528 12.0735 56.7288 10.8135C55.0238 9.56649 52.6788 8.93649 49.7568 8.93649H39.1898V35.9825H50.1798C53.2568 35.9825 55.7208 35.2695 57.5028 33.8615C59.2988 32.4405 60.2108 30.4515 60.2108 27.9475C60.2108 26.4225 59.7808 25.1115 58.9368 24.0505C58.1798 23.1015 57.1128 22.3545 55.7618 21.8295ZM44.9088 13.8115H49.2978C50.6738 13.8115 51.7128 14.0765 52.3878 14.6015C53.0538 15.1165 53.3808 15.7975 53.3808 16.6755C53.3808 17.5565 53.0538 18.2705 52.3878 18.7895C51.7128 19.3125 50.6738 19.5785 49.2978 19.5785H44.9078L44.9088 13.8115ZM53.1708 30.1915C52.4108 30.8005 51.2478 31.1075 49.7188 31.1075H44.9088V24.4895H49.7198C51.2478 24.4895 52.4118 24.7875 53.1748 25.3705C53.9328 25.9535 54.2998 26.7225 54.2998 27.7245C54.2998 28.7785 53.9308 29.5855 53.1708 30.1915ZM67.9378 15.7575H62.1798V35.9815H67.9368V15.7585L67.9378 15.7575ZM124.796 18.8015C123.873 17.7112 122.712 16.8482 121.402 16.2795C120.061 15.6875 118.554 15.3865 116.924 15.3865C114.926 15.3865 113.124 15.8395 111.565 16.7315C110.024 17.6057 108.75 18.8831 107.881 20.4265C106.997 21.9865 106.549 23.7915 106.549 25.7965C106.549 27.8025 106.984 29.7275 107.841 31.3095C108.678 32.8738 109.954 34.1599 111.511 35.0105C113.083 35.8775 114.93 36.3165 117.002 36.3165C119.544 36.3165 121.701 35.6795 123.417 34.4195C125.069 33.2095 126.204 31.5025 126.824 29.3635H121.028C120.723 30.0915 120.294 30.7105 119.678 31.1475C118.951 31.6625 118.012 31.9225 116.886 31.9225C115.91 31.9225 115.073 31.6865 114.399 31.2205C113.723 30.7525 113.207 30.0635 112.867 29.1675C112.65 28.579 112.504 27.9667 112.433 27.3435H126.924L126.953 27.1635C127.211 25.5335 127.146 23.9885 126.757 22.5715C126.385 21.1871 125.715 19.9003 124.796 18.8005V18.8015ZM112.526 23.6005C112.614 23.1805 112.734 22.7705 112.886 22.3695C113.239 21.4615 113.749 20.7625 114.403 20.2965C115.054 19.8305 115.864 19.5965 116.81 19.5965C117.997 19.5965 118.971 19.9795 119.705 20.7345C120.403 21.4525 120.797 22.4345 120.881 23.5985L112.526 23.6005ZM68.0578 8.93649H62.0608V13.8115H68.0578V8.93649ZM99.5808 18.0535C98.9314 17.2626 98.1202 16.6199 97.2018 16.1685C96.1278 15.6495 94.8708 15.3865 93.4658 15.3865C91.7458 15.3865 90.2028 15.8105 88.8848 16.6435C87.5658 17.4765 86.5198 18.6535 85.7788 20.1395C85.0388 21.6225 84.6628 23.3635 84.6628 25.3155C84.6628 27.2675 85.0568 28.9055 85.8378 30.3985C86.6188 31.8965 87.7018 33.0895 89.0578 33.9465C90.4138 34.8045 91.9618 35.2415 93.6578 35.2415C94.9378 35.2415 96.1088 34.9645 97.1338 34.4185C97.9234 34.0035 98.6142 33.4229 99.1588 32.7165V34.9185C99.1588 36.2835 98.7998 37.3315 98.0938 38.0295C97.3838 38.7275 96.3038 39.0795 94.8858 39.0795C93.6628 39.0795 92.7018 38.8035 92.0288 38.2575C91.4788 37.8105 90.9968 37.2245 90.8858 35.9825H85.3348C85.3858 37.7205 85.8968 38.8905 86.6208 39.9165C87.4288 41.0645 88.5678 41.9635 90.0088 42.5845C91.4328 43.1975 93.0888 43.5095 94.9238 43.5095C98.0068 43.5095 100.46 42.7365 102.216 41.2145C103.983 39.6845 104.878 37.5405 104.878 34.8445V15.7595H99.5818L99.5808 18.0545V18.0535ZM98.5678 28.0025C98.2338 28.7193 97.7019 29.3257 97.0348 29.7505C96.3818 30.1575 95.5938 30.3665 94.6948 30.3665C93.3888 30.3665 92.3768 29.9225 91.5948 29.0135C90.8148 28.1065 90.4198 26.8615 90.4198 25.3135C90.4198 23.7655 90.8138 22.5215 91.5938 21.6135C92.3668 20.7165 93.4098 20.2615 94.6928 20.2615C95.9768 20.2615 97.1108 20.7215 97.9088 21.6345C98.7128 22.5545 99.1208 23.8045 99.1208 25.3495C99.1208 26.3505 98.9348 27.2415 98.5678 28.0005V28.0025ZM140.89 20.5965V15.7595H136.735V8.93649H131.017V15.7595H127.468V20.5965H131.017V28.5135C131.017 32.9145 131.887 36.1495 137.305 36.0495L140.707 35.9815V31.4495H139.019C136.61 31.4495 136.745 30.0495 136.745 27.4475L136.735 20.5975L140.89 20.5965ZM83.2648 20.5965V15.7595H79.1088V8.93649H73.3908V15.7595H69.8408V20.5965H73.3868V28.5135C73.3868 32.9145 74.2568 36.1495 79.6768 36.0495L83.0768 35.9815V31.4495H81.3928C78.9848 31.4495 79.1178 30.0495 79.1178 27.4475L79.1078 20.5975L83.2648 20.5965ZM15.2408 13.8115H23.8758L32.7098 22.5645C32.8464 22.6998 32.9548 22.8608 33.029 23.0381C33.1032 23.2155 33.1416 23.4057 33.1421 23.598C33.1425 23.7902 33.105 23.9806 33.0317 24.1583C32.9584 24.336 32.8507 24.4975 32.7148 24.6335L21.3848 35.9895H12.4918L15.1818 33.3815L25.0558 23.5965L15.3068 13.8095" fill="#433955"/>
<path d="M18.7868 23.5735H10.1548L1.3198 14.8205C1.18331 14.6852 1.07487 14.5243 1.00068 14.347C0.92649 14.1697 0.888015 13.9795 0.887457 13.7873C0.8869 13.5951 0.924271 13.4046 0.99743 13.2269C1.07059 13.0492 1.1781 12.8876 1.3138 12.7515L12.6438 1.39551H21.5378L18.8498 4.00351L8.9748 13.7885L18.7248 23.5735" fill="#433955"/>
</g>
</svg>
