<svg width="161" height="21" viewBox="0 0 161 21" fill="none" xmlns="http://www.w3.org/2000/svg">
<g clip-path="url(#clip0_39_65)">
<mask id="mask0_39_65" style="mask-type:luminance" maskUnits="userSpaceOnUse" x="0" y="0" width="165" height="21">
<path d="M0.886841 0.908508H164.887V20.5515H0.886841V0.908508Z" fill="white"/>
</mask>
<g mask="url(#mask0_39_65)">
<path fill-rule="evenodd" clip-rule="evenodd" d="M143.682 13.7185C143.511 10.9365 144.673 7.84452 147.063 5.43852C152.262 0.209523 163.09 0.941522 163.152 0.946522C163.123 0.990522 155.207 12.5365 145.826 13.6165C145.102 13.7005 144.386 13.7325 143.682 13.7185ZM140.422 20.2195C140.448 20.2476 140.465 20.2827 140.472 20.3204C140.479 20.3582 140.475 20.3971 140.46 20.4325C140.445 20.4678 140.42 20.498 140.388 20.5193C140.356 20.5407 140.319 20.5522 140.281 20.5525H135.999C135.972 20.5523 135.946 20.5467 135.922 20.536C135.898 20.5254 135.876 20.5099 135.858 20.4905L130.167 14.4335L124.413 20.4915C124.395 20.5105 124.373 20.5256 124.348 20.536C124.324 20.5463 124.298 20.5516 124.272 20.5515H119.99C119.961 20.5514 119.933 20.545 119.907 20.5327C119.881 20.5205 119.858 20.5026 119.84 20.4805C119.821 20.4584 119.808 20.4325 119.801 20.4046C119.794 20.3768 119.793 20.3478 119.798 20.3195C119.805 20.282 119.823 20.2473 119.849 20.2195L127.694 11.9495L120.115 3.91152C120.088 3.88389 120.07 3.84901 120.064 3.81128C120.057 3.77355 120.062 3.73466 120.077 3.69952C120.092 3.66414 120.116 3.63389 120.148 3.61255C120.18 3.59121 120.218 3.57972 120.256 3.57952H124.539C124.593 3.57952 124.644 3.60252 124.681 3.64152L130.125 9.46452L135.589 3.64152C135.607 3.6221 135.629 3.60659 135.654 3.59594C135.679 3.58529 135.705 3.5797 135.732 3.57952H140.014C140.052 3.57939 140.09 3.59073 140.122 3.6121C140.154 3.63347 140.179 3.66391 140.194 3.69952C140.209 3.73471 140.213 3.77354 140.207 3.81121C140.2 3.84888 140.182 3.88376 140.156 3.91152L132.577 11.9495L140.422 20.2195ZM99.8308 20.5515C99.795 20.5518 99.7594 20.5449 99.7262 20.5313C99.693 20.5176 99.6629 20.4975 99.6376 20.4721C99.6122 20.4467 99.5922 20.4165 99.5787 20.3832C99.5652 20.35 99.5584 20.3144 99.5588 20.2785V3.85352C99.5588 3.70352 99.6808 3.58052 99.8308 3.58052H116.007C116.156 3.58052 116.277 3.70252 116.277 3.85352V6.20252C116.277 6.27432 116.248 6.3432 116.198 6.39415C116.147 6.4451 116.079 6.47399 116.007 6.47452H103.482V10.2565H110.991C111.141 10.2565 111.263 10.3795 111.263 10.5295V12.8795C111.263 12.9152 111.256 12.9506 111.242 12.9836C111.228 13.0166 111.208 13.0466 111.183 13.0719C111.158 13.0971 111.128 13.1171 111.095 13.1308C111.062 13.1445 111.027 13.1515 110.991 13.1515H103.482V17.3615H116.17C116.319 17.3615 116.441 17.4835 116.441 17.6335V20.2785C116.441 20.3506 116.412 20.4197 116.362 20.4709C116.311 20.522 116.242 20.551 116.17 20.5515H99.8308ZM71.1868 20.5515C71.1511 20.5515 71.1158 20.5444 71.0828 20.5307C71.0499 20.5169 71.02 20.4968 70.9948 20.4714C70.9697 20.446 70.9499 20.4159 70.9365 20.3828C70.9231 20.3497 70.9164 20.3142 70.9168 20.2785V3.85352C70.9168 3.70352 71.0368 3.58052 71.1868 3.58052H74.5668C74.7178 3.58052 74.8388 3.70252 74.8388 3.85352V20.2785C74.8386 20.3505 74.81 20.4195 74.7593 20.4706C74.7086 20.5217 74.6398 20.5507 74.5678 20.5515H71.1868ZM51.9548 20.5515C51.9191 20.5515 51.8838 20.5444 51.8508 20.5307C51.8179 20.5169 51.788 20.4968 51.7628 20.4714C51.7377 20.446 51.7179 20.4159 51.7045 20.3828C51.6911 20.3497 51.6844 20.3142 51.6848 20.2785V3.85352C51.6848 3.70352 51.8048 3.58052 51.9548 3.58052H67.9348C68.0848 3.58052 68.2048 3.70252 68.2048 3.85352V6.26852C68.2043 6.34016 68.1758 6.40874 68.1253 6.45958C68.0748 6.51042 68.0065 6.53948 67.9348 6.54052H55.6068V11.0145H62.4298C62.4655 11.0144 62.5009 11.0213 62.5339 11.035C62.5669 11.0486 62.5969 11.0687 62.6221 11.094C62.6473 11.1193 62.6672 11.1493 62.6808 11.1824C62.6943 11.2154 62.7011 11.2508 62.7008 11.2865V13.8325C62.7008 13.9046 62.6723 13.9737 62.6216 14.0249C62.5708 14.076 62.5019 14.105 62.4298 14.1055H55.6068V20.2785C55.6066 20.3505 55.578 20.4195 55.5273 20.4706C55.4766 20.5217 55.4078 20.5507 55.3358 20.5515H51.9548ZM41.4648 6.60652V20.2785C41.4646 20.3503 41.4361 20.4192 41.3856 20.4702C41.3352 20.5213 41.2666 20.5505 41.1948 20.5515H37.8148C37.779 20.5518 37.7434 20.5449 37.7102 20.5313C37.677 20.5176 37.6469 20.4975 37.6215 20.4721C37.5962 20.4467 37.5762 20.4165 37.5627 20.3832C37.5492 20.35 37.5424 20.3144 37.5428 20.2785V6.60752H30.3368C30.301 6.60779 30.2654 6.60091 30.2322 6.58727C30.199 6.57363 30.1689 6.55352 30.1435 6.5281C30.1182 6.50268 30.0982 6.47247 30.0847 6.43923C30.0712 6.406 30.0644 6.3704 30.0648 6.33452V3.85352C30.0648 3.70352 30.1858 3.58052 30.3368 3.58052H48.7018C48.8518 3.58052 48.9718 3.70252 48.9718 3.85352V6.33352C48.9716 6.40533 48.9431 6.47417 48.8926 6.52523C48.8422 6.57628 48.7736 6.60547 48.7018 6.60652H41.4648ZM23.7048 20.5515C23.669 20.5517 23.6336 20.5447 23.6005 20.531C23.5674 20.5173 23.5374 20.4971 23.5122 20.4717C23.487 20.4463 23.4671 20.4162 23.4536 20.383C23.4402 20.3498 23.4334 20.3143 23.4338 20.2785V3.85352C23.4338 3.70352 23.5538 3.58052 23.7038 3.58052H27.0838C27.2348 3.58052 27.3558 3.70252 27.3558 3.85352V20.2785C27.3556 20.3505 27.327 20.4195 27.2763 20.4706C27.2256 20.5217 27.1568 20.5507 27.0848 20.5515H23.7048ZM2.35083 3.85352C2.35083 3.70352 2.47083 3.58052 2.62183 3.58052H17.0678C18.0018 3.58052 18.8978 3.95452 19.5578 4.61952C20.2191 5.28588 20.5901 6.18671 20.5898 7.12552V8.25952C20.5895 9.19851 20.2186 10.0994 19.5578 10.7665C19.2313 11.0948 18.8432 11.3555 18.4157 11.5336C17.9883 11.7118 17.5299 11.8038 17.0668 11.8045H17.1988C18.1328 11.8045 19.0288 12.1775 19.6888 12.8425C20.3508 13.5086 20.7225 14.4094 20.7228 15.3485V17.0085C20.7226 17.9475 20.3517 18.8485 19.6908 19.5155C19.3641 19.8438 18.9758 20.1044 18.5482 20.2824C18.1205 20.4603 17.662 20.5521 17.1988 20.5525H2.62283C2.58704 20.5527 2.55157 20.5457 2.5185 20.532C2.48543 20.5183 2.45541 20.4981 2.43019 20.4727C2.40498 20.4473 2.38506 20.4172 2.37161 20.384C2.35816 20.3508 2.35143 20.3153 2.35183 20.2795V3.85352H2.35083ZM6.20583 6.34352H15.3358C16.2338 6.34352 16.9628 7.07652 16.9628 7.98052V8.75352C16.9635 8.96775 16.9219 9.18 16.8405 9.37814C16.759 9.57628 16.6394 9.75643 16.4882 9.90828C16.3371 10.0601 16.1576 10.1807 15.9598 10.2631C15.7621 10.3455 15.5501 10.3881 15.3358 10.3885H6.20683V6.34352H6.20583ZM6.20583 13.1835H15.4338C15.648 13.184 15.8599 13.2268 16.0575 13.3092C16.2552 13.3917 16.4346 13.5123 16.5856 13.6641C16.7366 13.816 16.8562 13.9961 16.9376 14.1941C17.0189 14.3922 17.0605 14.6044 17.0598 14.8185V15.8575C17.0605 16.0717 17.0189 16.2838 16.9376 16.4819C16.8562 16.68 16.7366 16.8601 16.5856 17.0119C16.4346 17.1638 16.2552 17.2844 16.0575 17.3668C15.8599 17.4493 15.648 17.492 15.4338 17.4925H6.20683V13.1825L6.20583 13.1835ZM77.5478 3.85352V20.2785C77.5484 20.3506 77.5771 20.4196 77.628 20.4706C77.6789 20.5217 77.7478 20.5507 77.8198 20.5515H80.8078C80.8436 20.5517 80.8791 20.5447 80.9122 20.531C80.9452 20.5173 80.9753 20.4971 81.0005 20.4717C81.0257 20.4463 81.0456 20.4162 81.0591 20.383C81.0725 20.3498 81.0792 20.3143 81.0788 20.2785V8.86452L94.0918 20.4835C94.1414 20.5275 94.2055 20.5517 94.2718 20.5515H96.5778C96.6496 20.5505 96.7182 20.5213 96.7686 20.4702C96.8191 20.4192 96.8476 20.3503 96.8478 20.2785V3.85352C96.8481 3.81785 96.8413 3.78248 96.8279 3.74943C96.8144 3.71639 96.7946 3.68632 96.7695 3.66096C96.7444 3.63559 96.7146 3.61543 96.6817 3.60163C96.6488 3.58783 96.6135 3.58065 96.5778 3.58052H93.5878C93.5521 3.58078 93.5168 3.58808 93.4839 3.60199C93.451 3.6159 93.4212 3.63616 93.3961 3.6616C93.371 3.68704 93.3512 3.71718 93.3378 3.75028C93.3243 3.78338 93.3176 3.8188 93.3178 3.85452V15.2375L80.3068 3.64952C80.2576 3.60474 80.1934 3.58011 80.1268 3.58052H77.8208C77.785 3.58039 77.7495 3.58737 77.7164 3.60105C77.6832 3.61474 77.6531 3.63486 77.6278 3.66025C77.6025 3.68564 77.5825 3.71579 77.569 3.74897C77.5554 3.78214 77.5476 3.81768 77.5478 3.85352ZM145.73 18.4735C145.369 18.1106 145.05 17.708 144.78 17.2735C146.019 17.1938 147.245 16.9672 148.431 16.5985C157.449 13.8075 163.123 1.01052 163.151 0.945522C163.151 0.945522 163.9 11.8875 158.685 17.1345C154.741 21.1035 148.94 21.7035 145.73 18.4745V18.4735Z" fill="#433955"/>
</g>
</g>
<defs>
<clipPath id="clip0_39_65">
<rect width="160" height="20" fill="white" transform="translate(0.886841 0.809509)"/>
</clipPath>
</defs>
</svg>
