<svg width="49" height="50" viewBox="0 0 49 50" fill="none" xmlns="http://www.w3.org/2000/svg">
<path d="M24.5569 46.2285C36.1548 46.2285 45.5569 36.8265 45.5569 25.2285C45.5569 13.6305 36.1548 4.22852 24.5569 4.22852C12.9589 4.22852 3.55685 13.6305 3.55685 25.2285C3.55685 36.8265 12.9589 46.2285 24.5569 46.2285Z" fill="black"/>
<path fill-rule="evenodd" clip-rule="evenodd" d="M23.7249 10.4804C24.2287 10.1445 24.8851 10.1445 25.3889 10.4804L38.889 19.4804C39.3062 19.7586 39.5569 20.227 39.5569 20.7285V29.7285C39.5569 30.23 39.3062 30.6984 38.889 30.9766L25.3889 39.9766C24.8851 40.3125 24.2287 40.3125 23.7249 39.9766L10.2248 30.9766C9.8075 30.6984 9.55685 30.23 9.55685 29.7285V20.7285C9.55685 20.227 9.8075 19.7586 10.2248 19.4804L23.7249 10.4804ZM12.5569 23.5313L15.1027 25.2285L12.5569 26.9257V23.5313ZM13.7611 29.7285L23.0569 35.9257V30.5313L17.8069 27.0313L13.7611 29.7285ZM20.5111 25.2285L24.5569 27.9257L28.6027 25.2285L24.5569 22.5313L20.5111 25.2285ZM26.0569 19.9257L31.3069 23.4257L35.3527 20.7285L26.0569 14.5313V19.9257ZM23.0569 14.5313V19.9257L17.8069 23.4257L13.7611 20.7285L23.0569 14.5313ZM36.5569 23.5313L34.0111 25.2285L36.5569 26.9257V23.5313ZM35.3527 29.7285L31.3069 27.0313L26.0569 30.5313V35.9257L35.3527 29.7285Z" fill="white"/>
</svg>
