<svg width="157" height="30" viewBox="0 0 157 30" fill="none" xmlns="http://www.w3.org/2000/svg">
<g clip-path="url(#clip0_39_56)">
<mask id="mask0_39_56" style="mask-type:luminance" maskUnits="userSpaceOnUse" x="0" y="1" width="157" height="29">
<path d="M156.572 1.20551H0.886841V29.0155H156.572V1.20551Z" fill="white"/>
</mask>
<g mask="url(#mask0_39_56)">
<path d="M32.3078 8.9695C26.6528 8.9695 22.2338 13.2625 22.2338 19.0095C22.2338 24.7575 26.5408 29.0145 32.3078 29.0145C38.0758 29.0145 42.4578 24.6845 42.4578 18.9735C42.4578 13.2995 38.1508 8.9695 32.3078 8.9695ZM32.3458 24.8725C29.1258 24.8725 26.7658 22.3705 26.7658 19.0115C26.7658 15.6145 29.0878 13.1145 32.3078 13.1145C35.5678 13.1145 37.9258 15.6525 37.9258 19.0115C37.9258 22.3715 35.5668 24.8725 32.3458 24.8725ZM43.6928 13.3375H46.5028V28.6425H50.9958V9.3425H43.6928V13.3375ZM10.9228 13.1125C13.2828 13.1125 15.1558 14.5685 15.8668 16.7325H20.6238C19.7618 12.1055 15.9418 8.9695 10.9618 8.9695C5.30584 8.9695 0.886841 13.2625 0.886841 19.0115C0.886841 24.7605 5.19384 29.0155 10.9618 29.0155C15.8298 29.0155 19.7248 25.8795 20.5868 21.2135H15.8668C15.1928 23.3785 13.3198 24.8725 10.9598 24.8725C7.70184 24.8725 5.41784 22.3705 5.41784 19.0115C5.41884 15.6145 7.66484 13.1125 10.9228 13.1125ZM129.082 17.1445L125.787 16.6595C124.214 16.4365 123.09 15.9135 123.09 14.6815C123.09 13.3375 124.552 12.6665 126.536 12.6665C128.708 12.6665 130.094 13.5985 130.394 15.1295H134.738C134.25 11.2475 131.254 8.9705 126.649 8.9705C121.892 8.9705 118.746 11.3975 118.746 14.8305C118.746 18.1155 120.806 20.0205 124.963 20.6165L128.258 21.1015C129.869 21.3245 130.768 21.9615 130.768 23.1545C130.768 24.6855 129.195 25.3205 127.023 25.3205C124.363 25.3205 122.866 24.2375 122.641 22.5955H118.222C118.634 26.3655 121.592 29.0155 126.985 29.0155C131.892 29.0155 135.149 26.7755 135.149 22.9305C135.149 19.4965 132.79 17.7045 129.082 17.1445ZM48.7498 1.3915C47.1018 1.3915 45.8648 2.5855 45.8648 4.2275C45.8648 5.8705 47.0998 7.0645 48.7488 7.0645C50.3968 7.0645 51.6338 5.8705 51.6338 4.2275C51.6338 2.5855 50.3978 1.3915 48.7498 1.3915ZM114.701 15.9505C114.701 11.7705 112.155 8.9705 106.762 8.9705C101.669 8.9705 98.8218 11.5465 98.2598 15.5035H102.717C102.942 13.9735 104.14 12.7035 106.687 12.7035C108.972 12.7035 110.096 13.7115 110.096 14.9435C110.096 16.5495 108.035 16.9595 105.489 17.2205C102.043 17.5935 97.7738 18.7885 97.7738 23.2685C97.7738 26.7405 100.359 28.9785 104.478 28.9785C107.699 28.9785 109.721 27.6345 110.733 25.5065C110.883 27.4105 112.306 28.6425 114.292 28.6425H116.913V24.6485H114.703V15.9505H114.701ZM110.282 20.8035C110.282 23.3795 108.035 25.2835 105.301 25.2835C103.615 25.2835 102.192 24.5735 102.192 23.0815C102.192 21.1775 104.477 20.6555 106.574 20.4315C108.597 20.2455 109.72 19.7975 110.282 18.9375V20.8035ZM86.4258 8.9695C83.9158 8.9695 81.8188 10.0145 80.3208 11.7695V1.2045H75.8268V28.6415H80.2458V26.1035C81.7438 27.9325 83.8788 29.0145 86.4258 29.0145C91.8178 29.0145 95.9008 24.7595 95.9008 19.0105C95.9008 13.2615 91.7428 8.9695 86.4258 8.9695ZM85.7518 24.8725C82.5318 24.8725 80.1718 22.3705 80.1718 19.0115C80.1718 15.6515 82.5678 13.1145 85.7878 13.1145C89.0478 13.1145 91.3308 15.6155 91.3308 19.0115C91.3308 22.3715 88.9718 24.8715 85.7508 24.8715L85.7518 24.8725ZM65.0768 8.9695C62.1558 8.9695 60.2448 10.1635 59.1218 11.8435V9.3425H54.6638V28.6415H59.1578V18.1515C59.1578 15.2025 61.0308 13.1125 63.8018 13.1125C66.3868 13.1125 67.9958 14.9415 67.9958 17.5925V28.6425H72.4898V17.2575C72.4918 12.4035 69.9838 8.9695 65.0768 8.9695ZM156.571 18.3765C156.571 12.8525 152.526 8.9705 147.095 8.9705C141.328 8.9705 137.096 13.3005 137.096 19.0115C137.096 25.0215 141.628 29.0155 147.171 29.0155C151.852 29.0155 155.522 26.2525 156.458 22.3335H151.776C151.102 24.0505 149.454 25.0215 147.244 25.0215C144.36 25.0215 142.187 23.2295 141.701 20.0945H156.57V18.3765H156.571ZM141.964 16.8835C142.677 14.1955 144.698 12.8895 147.021 12.8895C149.567 12.8895 151.515 14.3455 151.964 16.8835H141.964Z" fill="#433955"/>
</g>
</g>
<defs>
<clipPath id="clip0_39_56">
<rect width="156" height="29" fill="white" transform="translate(0.886841 0.309509)"/>
</clipPath>
</defs>
</svg>
