<svg width="49" height="50" viewBox="0 0 49 50" fill="none" xmlns="http://www.w3.org/2000/svg">
<path d="M24.8868 3.68848C13.2843 3.68848 3.88684 13.086 3.88684 24.6885C3.88684 33.981 9.89809 41.8298 18.2455 44.6123C19.2955 44.796 19.6893 44.166 19.6893 43.6148C19.6893 43.116 19.6631 41.4623 19.6631 39.7035C14.3868 40.6748 13.0218 38.4173 12.6018 37.236C12.3655 36.6323 11.3418 34.7685 10.4493 34.2698C9.71434 33.876 8.66434 32.9048 10.4231 32.8785C12.0768 32.8523 13.2581 34.401 13.6518 35.031C15.5418 38.2073 18.5606 37.3148 19.7681 36.7635C19.9518 35.3985 20.503 34.4798 21.1068 33.9548C16.4343 33.4298 11.5518 31.6185 11.5518 23.586C11.5518 21.3023 12.3656 19.4123 13.7043 17.9423C13.4943 17.4173 12.7593 15.2648 13.9143 12.3773C13.9143 12.3773 15.6731 11.826 19.6893 14.5298C21.3693 14.0573 23.1543 13.821 24.9393 13.821C26.7243 13.821 28.5093 14.0573 30.1893 14.5298C34.2056 11.7998 35.9643 12.3773 35.9643 12.3773C37.1193 15.2648 36.3843 17.4173 36.1743 17.9423C37.5131 19.4123 38.3268 21.276 38.3268 23.586C38.3268 31.6448 33.4181 33.4298 28.7456 33.9548C29.5068 34.611 30.1631 35.871 30.1631 37.8398C30.1631 40.6485 30.1368 42.906 30.1368 43.6148C30.1368 44.166 30.5306 44.8223 31.5806 44.6123C35.7494 43.2049 39.372 40.5256 41.9384 36.9515C44.5047 33.3774 45.8857 29.0886 45.8868 24.6885C45.8868 13.086 36.4893 3.68848 24.8868 3.68848Z" fill="black"/>
</svg>
