<svg xmlns="http://www.w3.org/2000/svg" width="100" height="36" viewBox="0 0 36 36"><g><defs><linearGradient id="idq7Nhv70xjg-862369947" x1="0" x2="1" y1="0.36411658005543174" y2="0.6358834199445682"><stop offset="0" stop-color="rgb(109,141,255)" stop-opacity="1"></stop><stop offset="1" stop-color="rgb(130,95,232)" stop-opacity="1"></stop></linearGradient></defs><path d="M 36 14.028 L 36 14.16 C 36.037 10.397 34.558 6.777 31.897 4.116 C 29.267 1.48 25.696 0 21.973 0 L 14.017 0 C 10.3 0.003 6.736 1.479 4.105 4.104 C 1.405 6.804 -0.035 10.44 0 14.148 L 0 14.016 L 0 21.972 L 0 21.84 C -0.037 25.603 1.442 29.223 4.103 31.885 C 6.765 34.546 10.385 36.025 14.148 35.988 L 14.016 35.988 L 21.972 35.988 L 21.84 35.988 C 25.604 36.025 29.224 34.546 31.885 31.885 C 34.547 29.224 36.026 25.604 35.989 21.84 L 35.989 21.972 L 35.989 14.028 Z M 35.58 17.412 C 35.545 17.556 35.52 17.7 35.509 17.856 C 35.533 17.7 35.545 17.556 35.581 17.412 Z M 36 14.352 C 36 14.436 36 14.508 35.989 14.592 C 35.989 14.508 35.989 14.436 36.001 14.352 Z M 35.977 14.796 C 35.977 14.88 35.965 14.952 35.965 15.036 C 35.965 14.952 35.977 14.868 35.977 14.796 Z M 35.953 15.228 C 35.941 15.3 35.941 15.384 35.929 15.456 C 35.929 15.384 35.941 15.312 35.953 15.228 Z M 35.905 15.672 Z M 35.845 16.116 L 35.809 16.332 Z M 35.773 16.548 C 35.761 16.62 35.749 16.704 35.725 16.776 C 35.737 16.704 35.761 16.62 35.773 16.548 Z M 9.229 8.328 C 9.923 6.77 10.9 5.355 12.109 4.152 C 13.546 2.71 15.283 1.604 17.197 0.912 C 17.72 0.72 18.294 0.72 18.817 0.912 C 20.713 1.608 22.465 2.712 23.905 4.152 C 25.114 5.355 26.091 6.77 26.785 8.328 C 26.881 8.532 26.677 8.748 26.461 8.676 C 23.941 7.836 21.193 7.716 18.601 8.364 C 18.217 8.46 17.821 8.46 17.437 8.364 C 14.84 7.728 12.116 7.836 9.577 8.676 C 9.337 8.76 9.133 8.544 9.229 8.328 Z M 0.48 17.856 C 0.468 17.706 0.444 17.558 0.408 17.412 C 0.37 17.269 0.338 17.125 0.312 16.98 C 0.348 17.124 0.372 17.268 0.408 17.412 C 0.456 17.556 0.468 17.7 0.48 17.856 Z M 0.012 14.592 C 0.012 14.508 0 14.436 0 14.352 C 0.012 14.436 0.012 14.508 0.012 14.592 Z M 0.276 16.776 C 0.264 16.704 0.24 16.62 0.228 16.548 C 0.24 16.62 0.264 16.704 0.276 16.776 Z M 0.192 16.32 L 0.156 16.104 C 0.168 16.188 0.18 16.26 0.192 16.32 Z M 0.132 15.888 Z M 0.072 15.456 C 0.06 15.384 0.06 15.3 0.049 15.228 C 0.061 15.312 0.073 15.384 0.073 15.456 Z M 0.036 15.024 C 0.036 14.94 0.024 14.868 0.024 14.784 C 0.024 14.868 0.036 14.952 0.036 15.024 Z M 0.42 18.588 C 0.456 18.444 0.48 18.3 0.492 18.144 C 0.468 18.3 0.456 18.444 0.42 18.588 Z M 0 21.648 C 0 21.564 0 21.492 0.012 21.408 C 0.012 21.492 0.012 21.564 0 21.648 Z M 0.024 21.204 C 0.024 21.12 0.036 21.048 0.036 20.964 C 0.036 21.048 0.024 21.132 0.024 21.204 Z M 0.048 20.772 C 0.06 20.7 0.06 20.616 0.072 20.544 C 0.072 20.616 0.06 20.688 0.048 20.772 Z M 0.096 20.328 Z M 0.156 19.884 L 0.192 19.668 C 0.18 19.752 0.168 19.812 0.156 19.884 Z M 0.228 19.452 C 0.24 19.38 0.252 19.296 0.276 19.224 C 0.264 19.296 0.24 19.38 0.228 19.452 Z M 8.364 17.412 C 8.46 17.796 8.46 18.192 8.364 18.576 C 7.728 21.173 7.836 23.897 8.676 26.436 C 8.748 26.652 8.532 26.856 8.328 26.76 C 6.77 26.066 5.355 25.089 4.152 23.88 C 2.71 22.443 1.604 20.706 0.912 18.792 C 0.72 18.269 0.72 17.695 0.912 17.172 C 1.611 15.262 2.717 13.526 4.152 12.084 C 5.355 10.875 6.77 9.898 8.328 9.204 C 8.532 9.108 8.748 9.312 8.676 9.528 C 7.837 12.075 7.728 14.807 8.364 17.412 Z M 17.412 35.58 C 17.268 35.616 17.124 35.652 16.98 35.676 C 17.124 35.652 17.268 35.616 17.412 35.58 C 17.556 35.544 17.7 35.52 17.856 35.508 C 17.7 35.532 17.556 35.544 17.412 35.58 Z M 14.352 36 C 14.436 36 14.508 36 14.592 35.988 C 14.508 35.988 14.436 35.988 14.352 36 Z M 14.796 35.976 C 14.88 35.976 14.952 35.964 15.036 35.964 C 14.952 35.964 14.868 35.976 14.796 35.976 Z M 15.228 35.952 C 15.3 35.94 15.384 35.94 15.456 35.928 C 15.384 35.928 15.312 35.94 15.228 35.952 Z M 15.672 35.904 Z M 16.116 35.844 L 16.332 35.808 Z M 16.548 35.772 C 16.62 35.76 16.704 35.748 16.776 35.724 C 16.704 35.736 16.62 35.76 16.548 35.772 Z M 18.144 35.52 C 18.288 35.532 18.444 35.556 18.588 35.592 C 18.732 35.628 18.876 35.664 19.02 35.688 C 18.876 35.652 18.732 35.628 18.588 35.592 C 18.444 35.55 18.294 35.525 18.144 35.52 Z M 21.408 35.988 C 21.492 35.988 21.564 36 21.648 36 C 21.564 35.988 21.492 35.988 21.408 35.988 Z M 19.224 35.724 C 19.296 35.736 19.38 35.76 19.452 35.772 C 19.38 35.76 19.296 35.736 19.224 35.724 Z M 19.68 35.808 L 19.896 35.844 C 19.824 35.834 19.752 35.822 19.68 35.808 Z M 20.112 35.868 C 20.184 35.88 20.256 35.892 20.328 35.892 C 20.256 35.892 20.184 35.88 20.112 35.868 Z M 20.544 35.928 C 20.616 35.94 20.7 35.94 20.772 35.952 C 20.688 35.94 20.616 35.928 20.544 35.928 Z M 20.976 35.964 C 21.06 35.964 21.132 35.976 21.216 35.976 C 21.132 35.976 21.048 35.964 20.976 35.964 Z M 26.772 27.672 C 26.078 29.23 25.101 30.645 23.892 31.848 C 22.455 33.29 20.718 34.396 18.804 35.088 C 18.281 35.28 17.707 35.28 17.184 35.088 C 15.274 34.389 13.538 33.283 12.096 31.848 C 10.889 30.643 9.913 29.228 9.216 27.672 C 9.12 27.468 9.324 27.252 9.54 27.324 C 12.06 28.176 14.808 28.284 17.4 27.636 C 17.784 27.54 18.18 27.54 18.564 27.636 C 21.156 28.284 23.904 28.164 26.424 27.324 C 26.664 27.24 26.868 27.456 26.772 27.672 Z M 27.144 18.804 C 26.445 20.714 25.339 22.45 23.904 23.892 C 22.467 25.334 20.73 26.44 18.816 27.132 C 18.293 27.324 17.719 27.324 17.196 27.132 C 15.286 26.433 13.55 25.327 12.108 23.892 C 10.666 22.455 9.56 20.718 8.868 18.804 C 8.676 18.281 8.676 17.707 8.868 17.184 C 9.567 15.274 10.673 13.538 12.108 12.096 C 13.545 10.654 15.282 9.548 17.196 8.856 C 17.719 8.664 18.293 8.664 18.816 8.856 C 20.712 9.552 22.464 10.656 23.904 12.096 C 25.346 13.533 26.452 15.27 27.144 17.184 C 27.324 17.712 27.324 18.288 27.144 18.804 Z M 35.088 18.804 C 34.389 20.714 33.283 22.45 31.848 23.892 C 30.645 25.101 29.23 26.078 27.672 26.772 C 27.468 26.868 27.252 26.664 27.324 26.448 C 28.164 23.928 28.284 21.18 27.636 18.588 C 27.54 18.206 27.54 17.806 27.636 17.424 C 28.272 14.832 28.164 12.084 27.324 9.564 C 27.252 9.348 27.468 9.144 27.672 9.24 C 29.23 9.934 30.645 10.911 31.848 12.12 C 33.29 13.557 34.396 15.294 35.088 17.208 C 35.28 17.712 35.28 18.288 35.088 18.804 Z M 35.52 18.144 C 35.532 18.288 35.556 18.444 35.592 18.588 C 35.628 18.732 35.664 18.876 35.688 19.02 C 35.652 18.876 35.628 18.732 35.592 18.588 C 35.55 18.444 35.525 18.294 35.52 18.144 Z M 35.988 21.408 C 35.988 21.492 36 21.564 36 21.648 C 35.988 21.564 35.988 21.492 35.988 21.408 Z M 35.724 19.224 C 35.736 19.296 35.76 19.38 35.772 19.452 C 35.76 19.38 35.736 19.296 35.724 19.224 Z M 35.808 19.68 L 35.844 19.896 C 35.832 19.812 35.82 19.752 35.808 19.68 Z M 35.868 20.112 C 35.88 20.184 35.892 20.256 35.892 20.328 C 35.892 20.256 35.88 20.184 35.868 20.112 Z M 35.928 20.544 C 35.94 20.616 35.94 20.7 35.952 20.772 C 35.94 20.688 35.928 20.616 35.928 20.544 Z M 35.964 20.976 C 35.964 21.06 35.976 21.132 35.976 21.216 C 35.976 21.132 35.964 21.048 35.964 20.976 Z" fill="url(#idq7Nhv70xjg-862369947)"></path></g></svg>