<svg width="49" height="50" viewBox="0 0 49 50" fill="none" xmlns="http://www.w3.org/2000/svg">
<path d="M24.5569 45.8086C36.1548 45.8086 45.5569 36.4066 45.5569 24.8086C45.5569 13.2106 36.1548 3.80859 24.5569 3.80859C12.9589 3.80859 3.55685 13.2106 3.55685 24.8086C3.55685 36.4066 12.9589 45.8086 24.5569 45.8086Z" fill="#3290E8"/>
<path fill-rule="evenodd" clip-rule="evenodd" d="M33.5569 12.8086H15.5569C13.9215 12.8061 12.5598 14.1762 12.5569 15.8086V33.8086C12.5569 35.4653 13.9004 36.8086 15.5569 36.8086H33.5569C35.1923 36.8112 36.554 35.441 36.5569 33.8086V15.8086C36.5569 14.152 35.214 12.8086 33.5569 12.8086ZM27.7562 17.2086C27.7562 16.7673 28.115 16.4086 28.5569 16.4086C28.9988 16.4086 29.3569 16.7673 29.3569 17.2086V27.8973C29.3569 28.3386 28.9981 28.6973 28.5569 28.6973C28.1334 28.6976 27.758 28.3222 27.7569 27.8973L27.7562 17.2086ZM23.7562 16.804C23.7562 16.362 24.115 16.004 24.5569 16.004C24.9988 16.004 25.3576 16.362 25.3576 16.804V28.404C25.3576 28.846 24.9988 29.204 24.5569 29.204C24.1334 29.2043 23.758 28.8289 23.7569 28.404L23.7562 16.804ZM19.7569 17.2086C19.7569 16.7673 20.1157 16.4086 20.5569 16.4086C20.9988 16.4086 21.3569 16.7673 21.3569 17.2086V27.8973C21.3569 28.3386 20.9988 28.6973 20.5569 28.6973C20.1334 28.6976 19.758 28.3222 19.7569 27.8973V17.2086ZM15.7569 18.8086C15.7569 18.3666 16.115 18.0086 16.5569 18.0086C16.9988 18.0086 17.3569 18.3666 17.3569 18.8086V26.004C17.3569 26.446 16.9981 26.804 16.5569 26.804C16.1208 26.8047 15.7576 26.4393 15.7569 26.004V18.8086ZM33.0778 31.0113C32.9549 31.118 29.9908 33.604 24.5569 33.604C19.123 33.604 16.1609 31.1173 16.036 31.0106C15.7054 30.7274 15.6663 30.2136 15.9496 29.8833C16.2257 29.5618 16.7527 29.5206 17.0752 29.7953C17.1217 29.8346 19.7682 32.004 24.5562 32.004C29.4041 32.004 32.0101 29.8186 32.0353 29.7973C32.3573 29.5206 32.8863 29.5609 33.1629 29.8833C33.448 30.2129 33.4094 30.7282 33.0778 31.0113ZM33.3569 26.0046C33.3569 26.446 32.9981 26.8046 32.5569 26.8046C32.1208 26.8053 31.7576 26.44 31.7569 26.0046V18.8086C31.7569 18.3666 32.115 18.0086 32.5562 18.0086C32.9981 18.0086 33.3569 18.3666 33.3569 18.8086V26.0046Z" fill="white"/>
</svg>
