<svg width="141" height="25" viewBox="0 0 141 25" fill="none" xmlns="http://www.w3.org/2000/svg">
<g clip-path="url(#clip0_39_47)">
<mask id="mask0_39_47" style="mask-type:luminance" maskUnits="userSpaceOnUse" x="0" y="1" width="141" height="24">
<path d="M0.886841 1.4205H140.887V24.0385H0.886841V1.4205Z" fill="white"/>
</mask>
<g mask="url(#mask0_39_47)">
<path d="M14.2948 2.1745C6.88984 2.1745 0.886841 8.1905 0.886841 15.6115V21.3705C0.886841 22.4295 1.74384 23.2875 2.80084 23.2875C3.30954 23.2875 3.79744 23.0856 4.15743 22.7262C4.51741 22.3668 4.72005 21.8792 4.72084 21.3705V15.6115C4.72084 15.3601 4.77036 15.1111 4.86657 14.8789C4.96279 14.6466 5.10381 14.4355 5.28158 14.2577C5.45936 14.08 5.67042 13.9389 5.90269 13.8427C6.13497 13.7465 6.38392 13.697 6.63534 13.697C6.88676 13.697 7.13571 13.7465 7.36799 13.8427C7.60027 13.9389 7.81132 14.08 7.9891 14.2577C8.16687 14.4355 8.3079 14.6466 8.40411 14.8789C8.50032 15.1111 8.54984 15.3601 8.54984 15.6115V21.3705C8.54984 21.8785 8.75165 22.3657 9.11088 22.725C9.4701 23.0842 9.95732 23.286 10.4653 23.286C10.9734 23.286 11.4606 23.0842 11.8198 22.725C12.179 22.3657 12.3808 21.8785 12.3808 21.3705V15.6115C12.3808 15.1031 12.5828 14.6155 12.9423 14.256C13.3018 13.8965 13.7894 13.6945 14.2978 13.6945C14.8063 13.6945 15.2939 13.8965 15.6534 14.256C16.0129 14.6155 16.2148 15.1031 16.2148 15.6115V21.3705C16.2065 21.6271 16.2499 21.8827 16.3424 22.1221C16.4348 22.3616 16.5745 22.58 16.753 22.7644C16.9316 22.9489 17.1454 23.0955 17.3817 23.1956C17.6181 23.2958 17.8722 23.3474 18.1288 23.3474C18.3855 23.3474 18.6396 23.2958 18.8759 23.1956C19.1123 23.0955 19.3261 22.9489 19.5047 22.7644C19.6832 22.58 19.8229 22.3616 19.9153 22.1221C20.0078 21.8827 20.0511 21.6271 20.0428 21.3705V15.6115C20.0428 15.1028 20.2449 14.615 20.6046 14.2553C20.9643 13.8956 21.4522 13.6935 21.9608 13.6935C22.4695 13.6935 22.9574 13.8956 23.3171 14.2553C23.6768 14.615 23.8788 15.1028 23.8788 15.6115V21.3705C23.873 21.6257 23.9182 21.8796 24.0119 22.1171C24.1055 22.3546 24.2457 22.571 24.4241 22.7535C24.6026 22.9361 24.8157 23.0812 25.051 23.1802C25.2863 23.2793 25.539 23.3303 25.7943 23.3303C26.0496 23.3303 26.3024 23.2793 26.5377 23.1802C26.773 23.0812 26.9861 22.9361 27.1645 22.7535C27.343 22.571 27.4832 22.3546 27.5768 22.1171C27.6704 21.8796 27.7157 21.6257 27.7098 21.3705V15.6115C27.7098 8.1915 21.7038 2.1745 14.2948 2.1745ZM30.7188 2.1765H34.1218V11.1415L43.2038 2.1765H47.7288L39.6308 10.0235L48.1828 23.2805H43.6568L37.0298 12.5425L34.1208 15.3615V23.2835H30.7178V2.1765H30.7188ZM50.0348 2.1775H53.4008V5.8235C53.6748 5.1135 54.3528 4.2515 55.4268 3.2315C56.5018 2.2155 57.7428 1.7045 59.1448 1.7045C59.2118 1.7045 59.3218 1.7105 59.4798 1.7225C59.6368 1.7355 59.9048 1.7605 60.2858 1.8025V5.5485C60.0943 5.51052 59.9006 5.48414 59.7058 5.4695C59.5128 5.45633 59.3193 5.45 59.1258 5.4505C57.3428 5.4505 55.9718 6.0255 55.0138 7.1745C54.0712 8.28092 53.5608 9.69107 53.5768 11.1445V23.2845H50.0348V2.1775ZM73.4748 10.5095C74.2878 10.4065 74.8328 10.0655 75.1068 9.4875C75.2648 9.1715 75.3438 8.7175 75.3438 8.1245C75.3438 6.9115 74.9138 6.0315 74.0578 5.4825C73.2008 4.9365 71.9748 4.6615 70.3778 4.6615C68.5308 4.6615 67.2228 5.1635 66.4508 6.1675C66.0188 6.7225 65.7388 7.5465 65.6058 8.6415H62.3008C62.3668 6.0345 63.2078 4.2195 64.8248 3.1965C66.4448 2.1765 68.3198 1.6665 70.4558 1.6665C72.9328 1.6665 74.9428 2.1395 76.4868 3.0835C78.0218 4.0305 78.7868 5.5015 78.7868 7.4995V19.6575C78.7868 20.0275 78.8638 20.3205 79.0148 20.5445C79.1618 20.7685 79.4808 20.8795 79.9688 20.8795C80.1268 20.8795 80.3038 20.8695 80.5018 20.8505C80.7128 20.8285 80.9229 20.7991 81.1318 20.7625V23.3825C80.5798 23.5405 80.1618 23.6375 79.8748 23.6785C79.5848 23.7165 79.1938 23.7385 78.6938 23.7385C77.4738 23.7385 76.5878 23.3065 76.0368 22.4385C75.7498 21.9785 75.5448 21.3275 75.4288 20.4885C74.7068 21.4345 73.6728 22.2555 72.3208 22.9495C70.9698 23.6475 69.4818 23.9945 67.8558 23.9945C65.9028 23.9945 64.3048 23.4015 63.0658 22.2145C61.8278 21.0275 61.2068 19.5405 61.2068 17.7575C61.2068 15.8035 61.8188 14.2885 63.0378 13.2125C64.2578 12.1355 65.8578 11.4725 67.8378 11.2235L73.4748 10.5105V10.5095ZM66.0188 20.0935C66.7658 20.6835 67.6508 20.9775 68.6758 20.9775C69.9334 20.9748 71.1729 20.6786 72.2958 20.1125C74.2628 19.1555 75.2458 17.5875 75.2458 15.4095V12.5555C74.8138 12.8335 74.2558 13.0635 73.5758 13.2465C72.8948 13.4305 72.2268 13.5625 71.5748 13.6415L69.4348 13.9165C68.1528 14.0865 67.1878 14.3545 66.5418 14.7215C65.4458 15.3365 64.8998 16.3215 64.8998 17.6695C64.8968 18.6985 65.2708 19.5035 66.0188 20.0935ZM86.8408 2.1765V11.1415L95.9228 2.1765H100.443L92.3468 10.0235L100.899 23.2805H96.3738L89.7468 12.5425L86.8388 15.3615V23.2835H83.4348V2.1765H86.8408ZM115.341 2.7585C116.737 3.4615 117.799 4.3715 118.527 5.4885C119.23 6.5525 119.699 7.7925 119.935 9.2135C120.144 10.1855 120.247 11.7345 120.247 13.8625H104.923C104.99 16.0085 105.49 17.7325 106.427 19.0295C107.362 20.3265 108.815 20.9775 110.778 20.9775C112.612 20.9775 114.078 20.3645 115.171 19.1375C115.785 18.4208 116.23 17.5748 116.472 16.6625H119.955C119.863 17.4385 119.557 18.3005 119.04 19.2535C118.524 20.2065 117.944 20.9835 117.307 21.5895C116.239 22.6405 114.918 23.3505 113.343 23.7165C112.499 23.9285 111.54 24.0325 110.472 24.0325C107.866 24.0325 105.657 23.0765 103.846 21.1665C102.034 19.2535 101.129 16.5805 101.129 13.1365C101.129 9.7465 102.04 6.9945 103.867 4.8795C105.692 2.7645 108.077 1.7065 111.024 1.7065C112.505 1.7035 113.945 2.0565 115.341 2.7585ZM116.607 11.0465C116.466 9.5095 116.132 8.2815 115.612 7.3635C114.651 5.6555 113.043 4.8005 110.794 4.8005C109.181 4.8005 107.829 5.3875 106.738 6.5645C105.645 7.7425 105.068 9.2345 105.002 11.0465H116.607ZM126.725 2.1775V5.1725C127.721 3.9385 128.777 3.0525 129.892 2.5125C131.008 1.9725 132.246 1.7045 133.611 1.7045C136.601 1.7045 138.621 2.7485 139.67 4.8385C140.247 5.9815 140.537 7.6165 140.537 9.7465V23.2845H136.935V9.9835C136.935 8.6955 136.746 7.6575 136.365 6.8715C135.735 5.5585 134.594 4.9015 132.942 4.9015C132.104 4.9015 131.414 4.9865 130.875 5.1575C129.904 5.4475 129.054 6.0255 128.316 6.8905C127.728 7.5875 127.343 8.3045 127.166 9.0495C126.99 9.7935 126.902 10.8515 126.902 12.2305V23.2845H123.36V2.1775H126.725Z" fill="#433955"/>
</g>
</g>
<defs>
<clipPath id="clip0_39_47">
<rect width="140" height="24" fill="white" transform="translate(0.886841 0.809509)"/>
</clipPath>
</defs>
</svg>
