<svg width="49" height="50" viewBox="0 0 49 50" fill="none" xmlns="http://www.w3.org/2000/svg">
<path d="M45.7169 22.6106H32.9224L44.0025 16.2126L41.8052 12.4046L30.7237 18.8026L37.1196 7.72159L33.3128 5.52359L26.9156 16.6018V3.80859H22.5182V16.6032L16.121 5.52359L12.3128 7.72159L18.7087 18.7998L7.62996 12.4046L5.43129 16.2126L16.5114 22.6106H3.71686V27.008H16.51L5.43129 33.406L7.62856 37.214L18.7101 30.816L12.3128 41.897L16.1196 44.095L22.5182 33.0154V45.8086H26.9156V32.741L33.4304 44.025L37.0006 41.9642L30.4844 30.6774L41.8024 37.2126L44.0011 33.4046L32.9224 27.0066H45.7155V22.6106H45.7169ZM24.7169 30.7866C23.9319 30.7867 23.1546 30.6321 22.4294 30.3317C21.7041 30.0313 21.0451 29.591 20.49 29.0358C19.9349 28.4806 19.4945 27.8215 19.1941 27.0961C18.8936 26.3707 18.7389 25.5931 18.7388 24.8079C18.7387 24.0227 18.8932 23.2451 19.1935 22.5196C19.4938 21.7942 19.9341 21.1349 20.489 20.5796C21.044 20.0243 21.7029 19.5838 22.4281 19.2832C23.1533 18.9827 23.9305 18.8279 24.7155 18.8278C26.3008 18.8276 27.8213 19.4574 28.9424 20.5786C30.0635 21.6999 30.6934 23.2207 30.6936 24.8065C30.6938 26.3924 30.0642 27.9133 28.9434 29.0348C27.8225 30.1563 26.3022 30.7864 24.7169 30.7866Z" fill="#625DF5"/>
</svg>
