<svg width="49" height="49" viewBox="0 0 49 49" fill="none" xmlns="http://www.w3.org/2000/svg">
<g clip-path="url(#clip0_39_691)">
<path d="M24.8868 4.0874C13.304 4.0874 3.88684 13.0666 3.88684 24.1106C3.88684 35.1547 13.304 44.1339 24.8868 44.1339C36.4696 44.1339 45.8868 35.1547 45.8868 24.1106C45.8868 13.0666 36.4696 4.0874 24.8868 4.0874Z" fill="#FDDD4C"/>
</g>
<g clip-path="url(#clip1_39_691)">
<path d="M15.6901 29.9093C15.2309 29.2346 16.3858 28.2133 15.9161 27.3559C15.6453 26.8614 15.2027 26.5532 14.6711 26.4886C14.161 26.4265 13.6354 26.6077 13.3004 26.962C12.7716 27.5205 12.6893 28.2809 12.7916 28.5499C12.8291 28.6486 12.8879 28.6755 12.93 28.6813C13.2181 28.7181 13.3802 28.0005 13.4796 27.8511C13.7546 27.4392 14.379 27.3145 14.8102 27.5853C15.6278 28.0985 14.9189 28.9281 14.98 29.6288C15.0395 30.311 15.4775 30.5852 15.8706 30.614C16.2531 30.6281 16.5205 30.4218 16.5881 30.2713C16.75 29.9119 16.0679 30.4645 15.6901 29.9093Z" fill="black"/>
<path d="M32.7735 23.7157C32.559 23.6869 32.3246 23.6876 32.0808 23.7157C31.8956 23.4889 31.7297 23.1218 31.6361 22.6933C31.4696 21.931 31.487 21.3788 31.9517 21.3071C32.4164 21.2354 32.6411 21.6966 32.8076 22.4589C32.9192 22.9714 32.8978 23.4422 32.7735 23.7157Z" fill="black"/>
<path d="M27.6837 24.1691C27.7021 24.3416 27.7086 24.5163 27.7034 24.6772C28.153 24.7028 28.4715 24.91 28.5563 25.0415C28.5998 25.1095 28.5824 25.1536 28.5683 25.1741C28.5218 25.2444 28.4221 25.2336 28.2131 25.2108C28.0306 25.1909 27.834 25.1734 27.6298 25.1826C27.5186 25.5134 27.189 25.5444 26.9574 25.2997C26.7957 25.3475 26.4779 25.5445 26.3833 25.3305C26.3824 25.2243 26.4968 25.0699 26.7041 24.9336C26.5626 24.6717 26.4678 24.3913 26.4118 24.101C26.1181 24.1525 25.8538 24.2322 25.6467 24.2948C25.5494 24.3243 25.1647 24.4929 25.1196 24.3028C25.0895 24.1715 25.3001 23.955 25.5228 23.7987C25.7715 23.6273 26.0476 23.5055 26.3337 23.4351C26.3275 23.0216 26.4362 22.7332 26.7457 22.6854C27.1295 22.6261 27.3673 22.9129 27.5319 23.4439C27.9957 23.569 28.4588 23.8791 28.6633 24.1997C28.7429 24.324 28.7582 24.4201 28.7067 24.4707C28.5782 24.6 27.8661 24.2252 27.6837 24.1691Z" fill="black"/>
<path d="M30.7334 26.0274C31.0276 26.1658 31.3512 26.1114 31.4568 25.9057C31.5625 25.7 31.4093 25.4214 31.1151 25.2831C30.821 25.1447 30.4973 25.1991 30.3917 25.4048C30.2861 25.6104 30.4392 25.889 30.7334 26.0274Z" fill="black"/>
<path d="M32.1816 25.0063C32.1869 24.6917 32.3855 24.4406 32.6242 24.4444C32.8629 24.4489 33.0521 24.7064 33.0467 25.0203C33.0414 25.3342 32.8428 25.5853 32.6041 25.5814C32.3654 25.5776 32.1762 25.3201 32.1816 25.0063Z" fill="black"/>
<path fill-rule="evenodd" clip-rule="evenodd" d="M38.6545 28.8583C38.6526 28.8518 38.6592 28.8744 38.6545 28.8583C39.1339 28.8583 39.8868 29.3862 39.8868 30.6615C39.8868 31.9306 39.3372 33.368 39.2075 33.687C37.2277 38.2326 32.5025 40.7629 26.8741 40.6028C21.6267 40.4536 17.1517 37.8009 15.1933 33.4763C14.0091 33.4776 12.7882 32.9785 11.8602 32.1906C10.882 31.3605 10.2789 30.2862 10.1612 29.1658C10.0696 28.2933 10.1813 27.4817 10.4668 26.7738L9.36689 25.8809C4.3335 21.8093 20.0762 5.04518 25.1109 9.25254C25.1363 9.27368 26.8239 10.8598 26.8279 10.8636C29.2556 9.87609 35.7601 7.99589 35.7674 12.3728C35.7701 13.8263 34.8033 15.5213 33.2541 17.0594C35.0444 18.6501 34.5723 20.9096 34.8574 22.9828L35.4792 23.1481C36.6647 23.4665 37.5078 23.8912 37.9204 24.3063C38.3329 24.7208 38.5375 25.1224 38.6117 25.5932C38.6813 25.9731 38.6719 26.6438 38.1491 27.3939C38.3373 27.8778 38.5092 28.3603 38.6545 28.8583ZM15.1043 32.297C15.2802 32.3009 15.4547 32.2899 15.6259 32.2617C17.4653 31.9613 17.9466 30.0472 17.6438 28.1678C17.3014 26.0455 15.8031 25.2973 14.7861 25.2441C14.5033 25.23 14.2405 25.2544 14.0239 25.296C12.2085 25.6464 11.1835 27.1262 11.3855 29.0479C11.568 30.7871 13.404 32.2534 15.1043 32.297ZM10.993 25.8174C11.6021 24.97 12.5977 24.3569 13.7277 24.1462C15.1659 20.4474 17.5676 17.0395 20.7461 14.6943C23.105 12.8091 25.6492 11.4568 25.6492 11.4568C25.6492 11.4568 24.2791 9.93477 23.8653 9.82266C21.3198 9.16414 15.8224 12.7963 12.3122 17.5956C10.892 19.5371 8.85874 22.9758 9.83092 24.7444C9.9506 24.9636 10.6293 25.5266 10.993 25.8174ZM31.63 31.4475C31.634 31.4873 31.6086 31.5283 31.5718 31.543C31.5718 31.543 29.5265 32.4546 26.2777 31.4918C26.3945 32.4369 27.5755 32.7952 28.4005 32.9247C32.4263 33.5884 36.19 31.3829 37.0371 30.8275C37.1826 30.7321 37.0354 30.9773 37.009 31.0133C35.972 32.295 33.1839 33.7793 29.5566 33.7787C27.9746 33.778 26.3933 33.2444 25.813 32.4238C24.9123 31.151 25.7682 29.2926 27.2692 29.486C29.8065 29.7605 32.4077 29.5544 34.7565 28.5098C36.8045 27.5989 37.578 26.597 37.4617 25.7854C37.2813 24.5276 35.3599 24.3309 34.3887 24.0251C33.9661 23.8912 33.7575 23.7842 33.7101 23.0226C33.6893 22.6901 33.6292 21.53 33.6071 21.0502C33.5683 20.2104 33.4627 19.0618 32.7192 18.5878C32.5253 18.4641 32.31 18.4046 32.0833 18.3931C31.9026 18.3847 31.7954 18.4088 31.7378 18.4217C31.7249 18.4246 31.7144 18.427 31.7062 18.4283C31.3048 18.4938 31.0587 18.6909 30.7686 18.9233C30.7519 18.9367 30.735 18.9502 30.718 18.9638C29.7906 19.7044 29.0076 19.8254 28.1364 19.7896C27.8651 19.7785 27.5854 19.7522 27.2904 19.7245C27.0191 19.6989 26.7348 19.6722 26.4321 19.6551L26.0624 19.6345C24.6034 19.5628 23.0388 20.7697 22.7788 22.4838C22.4882 24.3973 23.5901 25.5692 24.3067 26.3314C24.4837 26.5197 24.6373 26.6831 24.7405 26.8263C24.8067 26.9128 24.8836 27.0345 24.8836 27.1505C24.8836 27.2888 24.79 27.3984 24.6984 27.492C23.21 28.9582 22.734 31.288 23.2949 33.2297C23.3651 33.4718 23.4541 33.7037 23.559 33.9253C24.8749 36.8714 28.9575 38.2436 32.9452 36.9957C35.7399 36.121 38.2092 34.0076 38.712 31.0921C38.8317 30.3323 38.6559 30.0389 38.4165 29.8974C38.1631 29.7481 37.8595 29.7999 37.8595 29.7999C37.8595 29.7999 37.7211 28.8922 37.3293 28.0671C36.1666 28.9461 34.6702 29.5636 33.5309 29.8768C31.7054 30.3786 29.7337 30.5739 27.8473 30.3374C27.0823 30.2414 26.5682 30.1769 26.3479 30.8627C28.8639 31.7454 31.527 31.3674 31.527 31.3674C31.5785 31.3624 31.6246 31.3982 31.63 31.4475ZM24.3707 14.3177C22.9947 14.9922 21.4582 16.1933 20.2106 17.575C20.1664 17.6244 20.232 17.6922 20.2861 17.6545C21.3639 16.9031 22.8416 16.2048 24.7773 15.7526C26.9456 15.2459 29.0331 15.4585 30.3081 15.7385C30.3723 15.7526 30.4124 15.6469 30.3556 15.6161C29.5131 15.1632 28.22 14.8557 27.3027 14.8493C27.2579 14.8487 27.2324 14.7987 27.2592 14.7641C27.4177 14.5598 27.635 14.358 27.8335 14.212C27.8777 14.1787 27.8509 14.1101 27.7948 14.1133C26.6536 14.1804 24.0471 15.334 24.0565 15.292C24.1234 14.9845 24.334 14.5784 24.443 14.3888C24.469 14.3439 24.4182 14.2946 24.3707 14.3177Z" fill="black"/>
</g>
<defs>
<clipPath id="clip0_39_691">
<rect width="42" height="41" fill="white" transform="translate(3.88684 3.65918)"/>
</clipPath>
<clipPath id="clip1_39_691">
<rect width="32" height="33" fill="white" transform="translate(7.88684 7.65918)"/>
</clipPath>
</defs>
</svg>
