<svg width="49" height="50" viewBox="0 0 49 50" fill="none" xmlns="http://www.w3.org/2000/svg">
<path fill-rule="evenodd" clip-rule="evenodd" d="M8.79086 45.0552L3.63181 38.6282C2.39055 37.0819 1.71686 35.1804 1.71686 33.2233V9.951C1.71686 7.01948 4.06224 4.58697 7.08793 4.3804L31.0151 2.74679C32.7534 2.62811 34.4811 3.09015 35.909 4.05557L44.3158 9.73939C45.8206 10.7568 46.7169 12.42 46.7169 14.1949V40.6533C46.7169 43.5221 44.4107 45.8975 41.4483 46.0798L14.8919 47.7145C12.5279 47.86 10.2429 46.864 8.79086 45.0552Z" fill="white"/>
<path d="M17.0909 21.5969V21.2922C17.0909 20.5199 17.7095 19.8794 18.5067 19.8261L24.3137 19.4384L32.3443 31.2641V20.8851L30.2773 20.6095V20.4648C30.2773 19.6834 30.91 19.0386 31.7174 18.9973L37.0011 18.7266V19.487C37.0011 19.8439 36.7357 20.1492 36.3719 20.2108L35.1004 20.4258V37.2344L33.5046 37.7832C32.1715 38.2416 30.6873 37.7509 29.9241 36.5993L22.1278 24.8346V36.0633L24.5275 36.5226L24.4941 36.7451C24.3894 37.4424 23.7874 37.9697 23.0592 38.0021L17.0909 38.2677C17.012 37.518 17.5739 36.8472 18.3491 36.7658L19.1342 36.6833V21.7117L17.0909 21.5969Z" fill="black"/>
<path fill-rule="evenodd" clip-rule="evenodd" d="M31.2312 5.67893L7.30402 7.31253C5.8708 7.41038 4.75983 8.56262 4.75983 9.95124V33.2236C4.75983 34.5283 5.20896 35.796 6.03647 36.8268L11.1955 43.2538C12.0297 44.2929 13.3423 44.8651 14.7004 44.7815L41.2568 43.1468C42.6179 43.063 43.6775 41.9717 43.6775 40.6535V14.1951C43.6775 13.3797 43.2657 12.6155 42.5743 12.148L34.1675 6.46419C33.3108 5.88494 32.2742 5.60772 31.2312 5.67893ZM8.49052 10.3143C8.15773 10.0679 8.31611 9.55457 8.73417 9.52459L31.3921 7.89942C32.114 7.84764 32.8314 8.04643 33.4152 8.46007L37.9614 11.681C38.134 11.8032 38.053 12.0672 37.8393 12.0788L13.8447 13.3838C13.1185 13.4233 12.4017 13.21 11.8244 12.7825L8.49052 10.3143ZM12.7192 17.4748C12.7192 16.6953 13.349 16.0514 14.1543 16.0076L39.5234 14.6259C40.3083 14.5832 40.9689 15.1868 40.9689 15.9465V38.8567C40.9689 39.6347 40.3414 40.278 39.5377 40.3237L14.3292 41.7581C13.4557 41.8078 12.7192 41.1366 12.7192 40.291V17.4748Z" fill="black"/>
</svg>
