<svg width="49" height="50" viewBox="0 0 49 50" fill="none" xmlns="http://www.w3.org/2000/svg">
<path d="M40.3072 23.8881C42.3781 23.8881 44.0569 22.2093 44.0569 20.1384C44.0569 18.0675 42.378 16.3887 40.3071 16.3887C38.236 16.3887 36.5569 18.0677 36.5569 20.1387V23.8881H40.3072ZM29.8069 23.8881C31.878 23.8881 33.5569 22.2091 33.5569 20.1381V9.63867C33.5569 7.5676 31.878 5.88867 29.8069 5.88867C27.7358 5.88867 26.0569 7.5676 26.0569 9.63867V20.1381C26.0569 22.2091 27.7358 23.8881 29.8069 23.8881Z" fill="#2EB67D"/>
<path d="M8.80653 26.8892C6.73564 26.8892 5.05685 28.5679 5.05685 30.6388C5.05685 32.7097 6.7358 34.3885 8.80669 34.3885C10.8778 34.3885 12.5569 32.7096 12.5569 30.6385V26.8892H8.80653ZM19.3069 26.8892C17.2358 26.8892 15.5569 28.5681 15.5569 30.6392V41.1385C15.5569 43.2096 17.2358 44.8885 19.3069 44.8885C21.378 44.8885 23.0569 43.2096 23.0569 41.1385V30.6392C23.0569 28.5681 21.378 26.8892 19.3069 26.8892Z" fill="#E01E5A"/>
<path d="M26.0575 41.139C26.0575 43.2099 27.7363 44.8887 29.8072 44.8887C31.8781 44.8887 33.5569 43.2098 33.5569 41.1389C33.5569 39.0678 31.878 37.3887 29.8069 37.3887H26.0575V41.139ZM26.0575 30.6387C26.0575 32.7098 27.7365 34.3887 29.8075 34.3887H40.3069C42.378 34.3887 44.0569 32.7098 44.0569 30.6387C44.0569 28.5677 42.378 26.8887 40.3069 26.8887H29.8075C27.7365 26.8887 26.0575 28.5677 26.0575 30.6387Z" fill="#ECB22E"/>
<path d="M23.0563 9.63835C23.0563 7.56746 21.3775 5.88867 19.3066 5.88867C17.2357 5.88867 15.5569 7.56762 15.5569 9.63851C15.5569 11.7096 17.2358 13.3887 19.3069 13.3887H23.0563V9.63835ZM23.0563 20.1387C23.0563 18.0677 21.3773 16.3887 19.3063 16.3887H8.80685C6.73578 16.3887 5.05685 18.0677 5.05685 20.1387C5.05685 22.2098 6.73578 23.8887 8.80685 23.8887H19.3063C21.3773 23.8887 23.0563 22.2098 23.0563 20.1387Z" fill="#36C5F0"/>
</svg>
