<svg width="49" height="50" viewBox="0 0 49 50" fill="none" xmlns="http://www.w3.org/2000/svg">
<path fill-rule="evenodd" clip-rule="evenodd" d="M12.8944 4.38867H36.414C39.5547 4.38867 42.123 6.83134 42.2036 9.895L42.7169 29.4025L41.5967 41.7058C41.3553 44.3566 39.0795 46.3887 36.3522 46.3887H12.9007C10.1528 46.3887 7.86706 44.3267 7.65179 41.6536L6.71686 30.0447L7.10377 9.93397C7.16302 6.85469 9.73811 4.38867 12.8944 4.38867ZM12.4936 11.3438H36.6868C37.5494 11.3438 38.2525 12.019 38.2662 12.8607L38.5512 30.448C38.5621 31.1243 38.0335 31.6931 37.3426 31.7484L32.7171 32.1184C31.4878 32.2167 30.5414 33.2189 30.5414 34.4226V39.8575C30.5414 40.9925 29.5985 41.9126 28.4354 41.9126H20.8668C19.7037 41.9126 18.7608 40.9925 18.7608 39.8575V34.4226C18.7608 33.2189 17.8144 32.2167 16.585 32.1184L11.9518 31.7478C11.2641 31.6928 10.7366 31.1288 10.7431 30.4555L10.9141 12.8704C10.9223 12.0249 11.6271 11.3438 12.4936 11.3438Z" fill="#2274E5"/>
<path d="M36.688 11.3438H12.4947C11.6282 11.3438 10.9235 12.025 10.9153 12.8705L10.7443 30.4555C10.7378 31.1289 11.2652 31.6927 11.953 31.7477L16.5862 32.1184C17.8156 32.2167 18.7619 33.219 18.7619 34.4226V34.9897H30.5426V34.4226C30.5426 33.219 31.4889 32.2167 32.7183 32.1184L37.3438 31.7484C38.0347 31.6932 38.5633 31.1243 38.5523 30.4479L38.2673 12.8607C38.2537 12.0191 37.5506 11.3438 36.688 11.3438Z" fill="white"/>
<path d="M30.5405 34.9902V39.8581C30.5405 40.993 29.5976 41.9131 28.4345 41.9131H20.8659C19.7028 41.9131 18.7599 40.993 18.7599 39.8581V34.9902H30.5405Z" fill="#BEC2C8"/>
<path d="M19.8779 21.4383L18.2325 23.0117C19.7901 24.3603 23.2804 27.3979 24.781 28.7594C26.8344 25.5741 32.196 19.7257 34.6201 17.1997C34.4446 17.0071 33.9751 16.4997 33.5013 16.0117C29.7367 18.9658 25.5269 23.001 23.8925 24.6493L19.8779 21.4383Z" fill="#2C3B4A"/>
</svg>
