<svg width="133" height="36" viewBox="0 0 133 36" fill="none" xmlns="http://www.w3.org/2000/svg">
<g clip-path="url(#clip0_39_376)">
<mask id="mask0_39_376" style="mask-type:luminance" maskUnits="userSpaceOnUse" x="0" y="1" width="133" height="35">
<path d="M132.887 1.45068H0.886841V35.2883H132.887V1.45068Z" fill="white"/>
</mask>
<g mask="url(#mask0_39_376)">
<g opacity="0.8">
<path d="M48.7464 9.53662L42.0157 27.2696H45.4564L46.887 23.1236H53.894L55.3011 27.2696H58.767L52.2876 9.53662H48.7464ZM47.6659 20.6125C49.2238 16.2672 49.8519 14.5084 50.4282 12.7261C51.2574 15.3125 52.1117 17.7246 53.1084 20.6125H47.6659Z" fill="#9CA3AF"/>
<path d="M66.8642 14.5168C66.1065 14.5072 65.3574 14.6767 64.6776 15.0115C63.998 15.3462 63.4071 15.8368 62.9528 16.4432V9.53662H60.0079V27.2696H62.8204V25.6362C63.6764 26.8674 64.8306 27.5208 66.5392 27.5208C69.6281 27.5208 71.6886 25.1086 71.6886 21.0146C71.6886 16.9206 69.804 14.5168 66.8642 14.5168ZM65.8105 25.0701C63.9511 25.0701 62.8707 23.539 62.8707 20.8823C62.8707 18.4969 64.127 16.9893 65.911 16.9893C67.5862 16.9893 68.6231 18.522 68.6231 21.0331C68.6231 23.6781 67.5443 25.0584 65.8105 25.0584V25.0701Z" fill="#9CA3AF"/>
<path d="M77.8645 16.6489C79.0722 16.6489 80.027 17.3022 80.6552 18.4095L82.8446 16.9253C81.7373 15.1648 79.9014 14.4126 77.9147 14.4126C74.8207 14.4126 73.0568 16.2235 73.0568 18.185C73.0568 20.0964 74.2881 21.2287 76.2245 21.8318L77.5646 22.259C79.4508 22.862 79.878 23.2138 79.878 24.0446C79.878 24.7984 79.1744 25.3529 77.8913 25.3529C76.5076 25.3529 75.3518 24.5974 74.6985 23.3143L72.4102 24.8219C73.4656 26.4066 75.201 27.6395 77.7706 27.6395C80.8897 27.6395 82.8245 25.9543 82.8245 23.6393C82.8245 21.6291 81.5682 20.5972 79.3553 19.892L78.0152 19.49C76.4054 18.9874 76.0051 18.6357 76.0051 17.8818C76.0051 17.128 76.6014 16.6489 77.8645 16.6489Z" fill="#9CA3AF"/>
<path d="M88.7995 23.3944V17.1261H91.2217V14.7692H88.7995V10.6802H85.8731L85.8161 14.7692H83.8596V17.1261H85.8161V23.9774C85.8161 25.1365 85.9937 26.0193 86.5213 26.6241C87.049 27.2288 87.8614 27.5303 89.0893 27.5303C89.8309 27.5281 90.5691 27.433 91.2871 27.2472V24.902C90.8996 25.0453 90.4907 25.1218 90.0776 25.1282C89.1664 25.1366 88.7995 24.6843 88.7995 23.3944Z" fill="#9CA3AF"/>
<path d="M95.6971 16.6943V14.7696H92.8829V27.3331H95.8311V21.4701C95.8311 20.13 96.0522 19.2456 96.4861 18.5923C97.0322 17.8083 97.8128 17.3342 99.1663 17.3493C99.5318 17.3556 99.8948 17.412 100.245 17.5168V14.7696C99.8965 14.6575 99.5325 14.601 99.1663 14.6021C97.4342 14.6071 96.4543 15.3392 95.6971 16.6943Z" fill="#9CA3AF"/>
<path d="M111.536 23.8973V19.3745C111.536 17.4112 111.273 16.381 110.492 15.6507C109.655 14.8449 108.454 14.4429 106.743 14.4429C103.547 14.4429 101.53 15.9505 101.329 18.6709L104.152 18.9222C104.303 17.5386 104.981 16.7579 106.517 16.7579C107.298 16.7579 107.901 16.9255 108.253 17.2856C108.604 17.6458 108.732 18.0913 108.732 18.7932V19.4633C106.743 19.5906 104.328 19.9423 103.095 20.4951C101.611 21.1752 100.805 22.2322 100.805 23.8454C100.805 26.085 102.415 27.5206 104.705 27.5206C106.49 27.5206 107.849 26.8924 108.805 25.7349C109.078 26.9863 109.96 27.4486 111.534 27.4486C111.989 27.4576 112.442 27.3898 112.874 27.2476V25.3379C111.742 25.5423 111.544 24.8773 111.536 23.8973ZM108.732 22.0111C108.705 22.7147 108.581 23.4199 108.177 23.9995C107.624 24.8287 106.693 25.3078 105.561 25.3078C104.252 25.3078 103.648 24.6277 103.648 23.7231C103.648 23.0179 103.949 22.5388 104.73 22.187C105.611 21.7599 107.298 21.5069 108.732 21.4315V22.0111Z" fill="#9CA3AF"/>
<path d="M119.609 25.1659C117.674 25.1659 116.517 23.7085 116.517 20.9445C116.517 18.1555 117.825 16.874 119.532 16.874C120.713 16.874 121.617 17.4268 121.971 19.0852L124.611 18.1806C124.031 15.9443 122.323 14.4116 119.606 14.4116C115.86 14.4116 113.496 16.8991 113.496 20.9948C113.496 25.1156 115.81 27.6283 119.455 27.6283C122.303 27.6283 123.956 26.1207 124.686 24.0352L122.046 23.1306C121.746 24.4623 120.942 25.1659 119.609 25.1659Z" fill="#9CA3AF"/>
<path d="M130.285 23.3944V17.1261H132.705V14.7692H130.285V10.6802H127.358L127.306 14.7692H125.348V17.1261H127.311V23.9774C127.311 25.1365 127.489 26.0193 128.016 26.6241C128.544 27.2288 129.357 27.5303 130.584 27.5303C131.322 27.5271 132.056 27.432 132.77 27.2472V24.902C132.383 25.0451 131.975 25.1216 131.563 25.1282C130.655 25.1366 130.285 24.6843 130.285 23.3944Z" fill="#9CA3AF"/>
<path d="M17.7171 1.61795C4.31608 1.58277 0.957449 4.92465 0.922271 18.3257C0.887093 31.7267 4.2273 35.0853 17.6283 35.1205C31.0293 35.1557 34.3896 31.8138 34.4248 18.4128C34.46 5.01177 31.1181 1.65313 17.7171 1.61795ZM14.9246 27.5305C13.6564 27.5305 12.4166 27.1544 11.3621 26.4499C10.3076 25.7453 9.48572 24.7438 9.00039 23.572C8.51505 22.4004 8.38806 21.1111 8.63548 19.8671C8.88291 18.6234 9.49363 17.4807 10.3904 16.5839C11.2872 15.6871 12.4297 15.0764 13.6736 14.829C14.9175 14.5816 16.2068 14.7085 17.3785 15.1939C18.5503 15.6792 19.5517 16.5011 20.2564 17.5556C20.961 18.6101 21.337 19.8499 21.337 21.1181C21.3348 22.8182 20.6584 24.4479 19.4564 25.65C18.2543 26.8521 16.6246 27.5283 14.9246 27.5305ZM26.5718 27.2675H23.4309V12.6119H8.77359V9.47095H26.5718V27.2675Z" fill="#9CA3AF"/>
<path d="M14.9239 17.8472C14.2769 17.8472 13.6444 18.0391 13.1064 18.3985C12.5684 18.758 12.1491 19.2689 11.9015 19.8668C11.6538 20.4646 11.5891 21.1224 11.7153 21.757C11.8415 22.3915 12.1531 22.9745 12.6106 23.4321C13.0682 23.8896 13.6511 24.2012 14.2857 24.3275C14.9203 24.4536 15.5781 24.3888 16.1759 24.1412C16.7737 23.8936 17.2847 23.4743 17.6442 22.9363C18.0037 22.3982 18.1955 21.7659 18.1955 21.1188C18.1946 20.2514 17.8496 19.4197 17.2363 18.8064C16.6229 18.1931 15.7913 17.8481 14.9239 17.8472Z" fill="#9CA3AF"/>
</g>
</g>
</g>
<defs>
<clipPath id="clip0_39_376">
<rect width="132" height="35" fill="white" transform="translate(0.886841 0.839355)"/>
</clipPath>
</defs>
</svg>
