<svg width="65" height="66" viewBox="0 0 65 66" fill="none" xmlns="http://www.w3.org/2000/svg">
<g clip-path="url(#clip0_39_448)">
<path d="M51.5535 0.906738H14.2202C6.85638 0.906738 0.886841 6.87597 0.886841 14.2394V51.5708C0.886841 58.9342 6.85638 64.9035 14.2202 64.9035H51.5535C58.9173 64.9035 64.8868 58.9342 64.8868 51.5708V14.2394C64.8868 6.87597 58.9173 0.906738 51.5535 0.906738Z" fill="#854DFF" fill-opacity="0.1"/>
<path d="M35.7491 20.7681V26.1408C35.7491 26.8692 35.7491 27.2333 35.891 27.5116C36.0156 27.7564 36.2146 27.9554 36.4594 28.0801C36.7376 28.2218 37.1019 28.2218 37.8304 28.2218H43.2035M29.2451 38.6274L31.8467 41.2289L37.7003 35.3756M35.7491 20.4175H28.985C26.7994 20.4175 25.7066 20.4175 24.8718 20.8428C24.1375 21.2169 23.5404 21.8139 23.1663 22.5481C22.741 23.3828 22.741 24.4756 22.741 26.6608V40.1883C22.741 42.3737 22.741 43.4663 23.1663 44.301C23.5404 45.0352 24.1375 45.6323 24.8718 46.0064C25.7066 46.4317 26.7994 46.4317 28.985 46.4317H37.3102C39.4956 46.4317 40.5884 46.4317 41.4232 46.0064C42.1575 45.6323 42.7546 45.0352 43.1287 44.301C43.554 43.4663 43.554 42.3737 43.554 40.1883V28.2218L35.7491 20.4175Z" stroke="#854DFF" stroke-width="1.99992" stroke-linecap="round" stroke-linejoin="round"/>
</g>
<defs>
<clipPath id="clip0_39_448">
<rect width="64" height="65.33" fill="white" transform="translate(0.886841 0.399414)"/>
</clipPath>
</defs>
</svg>
