<svg width="65" height="66" viewBox="0 0 65 66" fill="none" xmlns="http://www.w3.org/2000/svg">
<g clip-path="url(#clip0_39_415)">
<path d="M51.5535 0.606934H14.2202C6.85638 0.606934 0.886841 6.57617 0.886841 13.9396V51.271C0.886841 58.6344 6.85638 64.6037 14.2202 64.6037H51.5535C58.9173 64.6037 64.8868 58.6344 64.8868 51.271V13.9396C64.8868 6.57617 58.9173 0.606934 51.5535 0.606934Z" fill="#1C92FF" fill-opacity="0.1"/>
<path d="M26.6426 36.765C26.6426 38.7763 28.2733 40.4069 30.2849 40.4069H33.667C35.8222 40.4069 37.5694 38.6599 37.5694 36.5047C37.5694 34.3497 35.8222 32.6026 33.667 32.6026H30.545C28.3898 32.6026 26.6426 30.8556 26.6426 28.7005C26.6426 26.5454 28.3898 24.7983 30.545 24.7983H33.9271C35.9387 24.7983 37.5694 26.429 37.5694 28.4404M32.1059 22.457V24.7983M32.1059 40.4069V42.7482M47.7158 32.6026C47.7158 41.223 40.727 48.2111 32.1059 48.2111C23.485 48.2111 16.4962 41.223 16.4962 32.6026C16.4962 23.9822 23.485 16.9941 32.1059 16.9941C40.727 16.9941 47.7158 23.9822 47.7158 32.6026Z" stroke="#1C92FF" stroke-width="1.99992" stroke-linecap="round" stroke-linejoin="round"/>
</g>
<defs>
<clipPath id="clip0_39_415">
<rect width="64" height="65.33" fill="white" transform="translate(0.886841 0.0996094)"/>
</clipPath>
</defs>
</svg>
