<svg width="141" height="34" viewBox="0 0 141 34" fill="none" xmlns="http://www.w3.org/2000/svg">
<g clip-path="url(#clip0_39_346)">
<mask id="mask0_39_346" style="mask-type:luminance" maskUnits="userSpaceOnUse" x="0" y="1" width="141" height="33">
<path d="M140.887 1.45068H0.886841V33.4667H140.887V1.45068Z" fill="white"/>
</mask>
<g mask="url(#mask0_39_346)">
<g opacity="0.8">
<path d="M49.0668 12.5347C49.0668 11.8668 48.5515 11.3188 47.8303 11.3188C47.1091 11.3188 46.5939 11.8668 46.5939 12.5347V22.3993C46.5939 23.0673 47.1091 23.6153 47.8303 23.6153C48.5687 23.6153 49.0668 23.0673 49.0668 22.3993V12.5347Z" fill="#9CA3AF"/>
<path d="M61.2398 11.3188C60.5186 11.3188 60.0205 11.8668 60.0205 12.5347V16.7477L60.0892 20.5155L58.5953 16.9874L56.6376 12.98C56.0366 11.7298 55.3498 11.3188 54.371 11.3188C52.9286 11.3188 52.2931 12.2265 52.2931 13.528V22.3993C52.2931 23.0673 52.7911 23.6153 53.5124 23.6153C54.2336 23.6153 54.7316 23.0673 54.7316 22.3993L54.7144 18.2378L54.6629 13.9733L56.2599 17.878L58.2347 21.954C58.8529 23.2556 59.5055 23.6325 60.5013 23.6325C61.7893 23.6325 62.4589 22.8446 62.4589 21.3889V12.5347C62.4589 11.8668 61.961 11.3188 61.2398 11.3188Z" fill="#9CA3AF"/>
<path d="M71.5794 13.8365L74.3784 13.905C75.0309 13.9221 75.5462 13.4255 75.5462 12.7062C75.5462 11.9869 75.0309 11.4902 74.3784 11.4902L66.2732 11.4731C65.6379 11.4731 65.1056 11.9697 65.1056 12.689C65.1056 13.4083 65.6379 13.905 66.2732 13.8879L69.0894 13.8365V22.3994C69.0894 23.0674 69.6045 23.6155 70.3259 23.6155C71.0642 23.6155 71.5794 23.0674 71.5794 22.3994V13.8365Z" fill="#9CA3AF"/>
<path d="M79.8759 23.461H85.9032C86.5386 23.461 87.0539 22.9814 87.0539 22.3134C87.0539 21.6285 86.5386 21.1489 85.9032 21.1489L80.6658 21.1661V18.306H85.1992C85.8174 18.306 86.3154 17.8436 86.3154 17.21C86.3154 16.5591 85.8174 16.0967 85.1992 16.0967L80.6658 16.131V13.7676H85.9032C86.5386 13.7676 87.0539 13.2881 87.0539 12.603C87.0539 11.918 86.5386 11.4556 85.9032 11.4556L79.8931 11.4727C78.794 11.4727 78.1759 12.0893 78.1759 13.1853V21.7484C78.1759 22.8444 78.794 23.461 79.8759 23.461Z" fill="#9CA3AF"/>
<path d="M96.8728 18.5804C98.5041 18.1523 99.4658 16.885 99.4658 15.2066C99.4658 13.3398 98.2465 11.4731 95.3273 11.4731H91.5494C90.4505 11.4731 89.8322 12.0896 89.8322 13.1857V22.3994C89.8322 23.0674 90.3474 23.6155 91.103 23.6155C91.8414 23.6155 92.3737 23.0674 92.3737 22.3994L92.3566 19.1797H94.4344L96.5465 22.9818C96.8899 23.5641 97.6111 23.8038 98.2809 23.4613C98.9506 23.1017 99.1395 22.3823 98.7789 21.8001L96.8728 18.5804ZM92.3566 13.7508H95.3445C96.3576 13.7508 96.993 14.3845 96.993 15.3264C96.993 16.2512 96.392 16.9363 95.3789 16.9363H92.3566V13.7508Z" fill="#9CA3AF"/>
<path d="M107.05 23.6842C109.557 23.6842 111.171 22.554 111.721 20.7215C112.013 19.6768 111.395 18.9233 110.467 18.9233C109.901 18.9233 109.523 19.2144 109.3 19.8481C108.956 20.8072 108.115 21.4066 106.913 21.4066C105.007 21.4066 104.182 20.122 104.182 17.4504C104.182 14.8301 105.024 13.5799 106.913 13.5799C108.098 13.5799 108.785 14.0766 109.214 15.224C109.454 15.8749 109.849 16.1659 110.433 16.1659C111.326 16.1659 111.978 15.4467 111.704 14.4534C111.154 12.4325 109.557 11.3022 106.981 11.3022C103.444 11.3022 101.641 13.4601 101.641 17.4504C101.641 21.475 103.444 23.6842 107.05 23.6842Z" fill="#9CA3AF"/>
<path d="M119.259 23.6493C122.899 23.6493 124.702 21.4228 124.702 17.4495C124.702 13.4421 122.848 11.2329 119.259 11.2329C115.653 11.2329 113.849 13.4764 113.832 17.4495C113.832 21.4399 115.67 23.6493 119.259 23.6493ZM119.259 21.3544C117.232 21.3544 116.357 20.0699 116.357 17.4495C116.357 14.7951 117.25 13.5106 119.241 13.5106C121.251 13.5106 122.195 14.7951 122.178 17.4495C122.178 20.0869 121.285 21.3544 119.259 21.3544Z" fill="#9CA3AF"/>
<path d="M140.686 13.4601C140.686 12.1071 139.845 11.3022 138.539 11.3022C137.475 11.3022 136.668 11.8845 136.273 13.2203L134.951 17.5189L134.075 20.6187L133.233 17.5189L131.825 13.2203C131.43 11.9701 130.743 11.3022 129.541 11.3022C128.219 11.3022 127.395 12.09 127.395 13.4601V22.3998C127.395 23.0678 127.876 23.6159 128.58 23.6159C129.284 23.6159 129.765 23.0678 129.765 22.3998L129.747 18.0841L129.627 13.4601L130.984 18.1869L132.426 22.3655C132.735 23.2904 133.319 23.5987 134.075 23.5987C134.779 23.5987 135.345 23.3418 135.637 22.3998L137.011 18.1869L138.471 13.4258L138.333 18.0841V22.3998C138.333 23.0678 138.831 23.6159 139.518 23.6159C140.222 23.6159 140.703 23.0678 140.703 22.3998L140.686 13.4601Z" fill="#9CA3AF"/>
<path d="M28.6826 19.0684C28.6826 19.3539 28.5702 19.6276 28.3699 19.8293C28.1697 20.0311 27.8981 20.1446 27.6149 20.1446C27.3316 20.1446 27.0601 20.0311 26.8598 19.8293C26.6596 19.6276 26.5471 19.3539 26.5471 19.0684V9.45474C26.5471 9.16935 26.6596 8.89564 26.8598 8.69384C27.0601 8.49203 27.3316 8.37865 27.6149 8.37865C27.8981 8.37865 28.1697 8.49203 28.3699 8.69384C28.5702 8.89564 28.6826 9.16935 28.6826 9.45474V19.0684ZM28.3119 25.7296C28.1708 25.8718 24.2 29.2068 16.9201 29.2068C9.64031 29.2068 5.69595 25.8896 5.5283 25.7473C5.42264 25.6575 5.33561 25.5476 5.2722 25.4239C5.20878 25.3 5.17022 25.1649 5.15875 25.0261C5.14728 24.8873 5.16309 24.7476 5.20531 24.6149C5.24752 24.4823 5.31531 24.3593 5.40475 24.2532C5.58904 24.0383 5.85016 23.9056 6.13117 23.8839C6.41218 23.8622 6.69028 23.9535 6.90485 24.1376C6.96662 24.1821 10.5139 27.0813 16.9113 27.0813C23.3087 27.0813 26.8824 24.1643 26.9178 24.1376C27.1348 23.9551 27.4138 23.8651 27.6955 23.8867C27.9773 23.9083 28.2396 24.0397 28.4266 24.2532C28.6067 24.4649 28.6965 24.7397 28.6767 25.0178C28.6569 25.2958 28.529 25.5549 28.3208 25.7384L28.3119 25.7296ZM5.14886 9.45474C5.16482 9.16845 5.29259 8.90015 5.50423 8.70852C5.71587 8.51687 5.99419 8.41746 6.27834 8.43201C6.54176 8.44709 6.79032 8.55994 6.97607 8.74879C7.16183 8.93764 7.27163 9.18914 7.28428 9.45474V19.0507C7.28428 19.336 7.17179 19.6097 6.97156 19.8115C6.77132 20.0134 6.49975 20.1268 6.21657 20.1268C5.9334 20.1268 5.66182 20.0134 5.46158 19.8115C5.26136 19.6097 5.14886 19.336 5.14886 19.0507V9.45474ZM10.5051 7.32035C10.521 7.03405 10.6488 6.76576 10.8604 6.57413C11.072 6.38248 11.3503 6.28308 11.6345 6.29762C11.8979 6.3127 12.1465 6.42555 12.3322 6.6144C12.518 6.80325 12.6278 7.05473 12.6404 7.32035V21.5496C12.6404 21.8351 12.5279 22.1088 12.3277 22.3106C12.1275 22.5124 11.8559 22.6257 11.5727 22.6257C11.2896 22.6257 11.018 22.5124 10.8178 22.3106C10.6176 22.1088 10.5051 21.8351 10.5051 21.5496V7.32035ZM15.8877 6.78675C15.8877 6.50136 16.0002 6.22765 16.2004 6.02585C16.4007 5.82404 16.6723 5.71066 16.9553 5.71066C17.2386 5.71066 17.5102 5.82404 17.7104 6.02585C17.9106 6.22765 18.0231 6.50136 18.0231 6.78675V22.2612C18.0231 22.5465 17.9106 22.8202 17.7104 23.0221C17.5102 23.2239 17.2386 23.3372 16.9553 23.3372C16.6723 23.3372 16.4007 23.2239 16.2004 23.0221C16.0002 22.8202 15.8877 22.5465 15.8877 22.2612V6.78675ZM21.1822 7.32035C21.1822 7.03496 21.2946 6.76125 21.4949 6.55944C21.6951 6.35764 21.9667 6.24426 22.2498 6.24426C22.533 6.24426 22.8046 6.35764 23.0048 6.55944C23.2051 6.76125 23.3176 7.03496 23.3176 7.32035V21.5496C23.3176 21.8351 23.2051 22.1088 23.0048 22.3106C22.8046 22.5124 22.533 22.6257 22.2498 22.6257C21.9667 22.6257 21.6951 22.5124 21.4949 22.3106C21.2946 22.1088 21.1822 21.8351 21.1822 21.5496V7.32035ZM28.9737 1.45077H4.90178C4.37726 1.44726 3.85721 1.54805 3.37141 1.74738C2.8856 1.94671 2.44356 2.24066 2.07062 2.61239C1.69768 2.98413 1.40116 3.42635 1.19803 3.91375C0.994898 4.40114 0.88915 4.92412 0.886841 5.45276V29.4648C0.88915 29.9933 0.994898 30.5164 1.19803 31.0038C1.40116 31.4911 1.69768 31.9334 2.07062 32.3051C2.44356 32.6768 2.8856 32.9708 3.37141 33.1701C3.85721 33.3695 4.37726 33.4701 4.90178 33.4666H28.9737C29.4975 33.4701 30.0169 33.3697 30.5021 33.1709C30.9874 32.9722 31.429 32.679 31.8018 32.3082C32.1746 31.9374 32.4713 31.4962 32.6749 31.0098C32.8787 30.5235 32.9853 30.0015 32.9886 29.4736V5.45276C32.9864 4.92488 32.8809 4.40262 32.6783 3.91581C32.4758 3.429 32.1801 2.98718 31.808 2.61555C31.436 2.24393 30.9951 1.9498 30.5102 1.74994C30.0255 1.55009 29.5063 1.44843 28.9826 1.45077" fill="#9CA3AF"/>
</g>
</g>
</g>
<defs>
<clipPath id="clip0_39_346">
<rect width="140" height="33" fill="white" transform="translate(0.886841 0.839355)"/>
</clipPath>
</defs>
</svg>
