<svg width="33" height="33" viewBox="0 0 33 33" fill="none" xmlns="http://www.w3.org/2000/svg">
<g clip-path="url(#clip0_39_293)">
<path d="M14.3036 4.17121H10.494C8.49382 4.17121 7.49373 4.17121 6.72976 4.57603C6.05775 4.93213 5.51139 5.50035 5.16899 6.19923C4.77972 6.99376 4.77972 8.03387 4.77972 10.1141V20.514C4.77972 22.5942 4.77972 23.6343 5.16899 24.4289C5.51139 25.1277 6.05775 25.696 6.72976 26.0521C7.49373 26.4569 8.49382 26.4569 10.494 26.4569H20.494C22.4942 26.4569 23.4943 26.4569 24.2583 26.0521C24.9303 25.696 25.4766 25.1277 25.819 24.4289C26.2083 23.6343 26.2083 22.5942 26.2083 20.514V16.5522M15.494 10.3617H20.2559V15.314M19.6607 4.79025V2.93311M24.3503 6.10345L25.613 4.79025M25.6253 10.9807H27.411M4.77972 16.9819C5.55584 17.1065 6.351 17.1712 7.16068 17.1712C12.3825 17.1712 17.0003 14.4816 19.8031 10.3617" stroke="#8B5CF6" stroke-width="1.82108" stroke-linecap="round" stroke-linejoin="round"/>
</g>
<defs>
<clipPath id="clip0_39_293">
<rect width="25" height="26" fill="white" transform="translate(3.88684 1.84937)"/>
</clipPath>
</defs>
</svg>
